<svg width="24" height="24" viewBox="0 0 24 24" fill="none" xmlns="http://www.w3.org/2000/svg">
<path d="M12.0003 20.1L10.7003 18.91C6.06027 14.71 3.00026 11.91 3.00026 8.53998C2.99357 7.88807 3.11705 7.2414 3.36345 6.63782C3.60984 6.03423 3.97418 5.48589 4.43516 5.0249C4.89615 4.56391 5.4445 4.19955 6.04808 3.95315C6.65166 3.70676 7.29837 3.58329 7.95027 3.58998C8.72047 3.59578 9.48047 3.76658 10.1791 4.09088C10.8777 4.41518 11.4987 4.88544 12.0003 5.46998C12.5018 4.88544 13.1228 4.41518 13.8214 4.09088C14.52 3.76658 15.28 3.59578 16.0502 3.58998C16.7021 3.58329 17.3489 3.70676 17.9524 3.95315C18.556 4.19955 19.1044 4.56391 19.5654 5.0249C20.0263 5.48589 20.3907 6.03423 20.6371 6.63782C20.8835 7.2414 21.0069 7.88807 21.0003 8.53998C21.0003 11.94 17.9402 14.71 13.3002 18.92L12.0003 20.1Z" fill="#D23031"/>
<path fill-rule="evenodd" clip-rule="evenodd" d="M14.6504 7.48999L15.3504 8.19999L12.7104 10.85L15.3504 13.49L14.6504 14.2L12.0004 11.55L9.35039 14.2L8.65039 13.49L11.2904 10.85L8.65039 8.19999L9.35039 7.48999L12.0004 10.14L14.6504 7.48999Z" fill="white"/>
</svg>
