<svg width="26" height="29" viewBox="0 0 26 29" fill="none" xmlns="http://www.w3.org/2000/svg">
<path fill-rule="evenodd" clip-rule="evenodd" d="M0 8.80754V16.4289L8.8727 20.63L17.9466 11.0464L11.9974 0.165039C11.8056 0.229989 11.6186 0.313939 11.4394 0.417189L1.5607 6.10959C0.59495 6.66609 0 7.69454 0 8.80754Z" fill="#57B7DD"/>
<path fill-rule="evenodd" clip-rule="evenodd" d="M8.87268 20.63L19.5711 25.6955L24.4262 22.8977L17.9466 11.0464L8.87268 20.63Z" fill="#F99132"/>
<path fill-rule="evenodd" clip-rule="evenodd" d="M23.2628 5.43164L14.5607 0.417238C13.7742 -0.0360115 12.8391 -0.119862 11.9974 0.165088L17.9466 11.0464L23.2628 5.43164Z" fill="#906BA7"/>
<path fill-rule="evenodd" clip-rule="evenodd" d="M24.4262 22.8978L24.4394 22.8902C25.4051 22.3337 26 21.3053 26 20.1923V8.80754C26 7.69459 25.4051 6.66609 24.4394 6.10959L23.2628 5.43164L17.9467 11.0464L24.4262 22.8978Z" fill="#FF6D56"/>
<path fill-rule="evenodd" clip-rule="evenodd" d="M0 16.429V20.1924C0 21.3053 0.59495 22.3338 1.5607 22.8903L4.907 24.8185L8.8727 20.63L0 16.429Z" fill="#8AC539"/>
<path fill-rule="evenodd" clip-rule="evenodd" d="M4.90698 24.8184L11.4393 28.5825C12.405 29.139 13.5949 29.139 14.5606 28.5825L19.571 25.6954L8.87268 20.6299L4.90698 24.8184Z" fill="#FFBE0A"/>
</svg>
