<svg width="20" height="20" viewBox="0 0 20 20" fill="none" xmlns="http://www.w3.org/2000/svg">
<path fill-rule="evenodd" clip-rule="evenodd" d="M13.7012 7.23438C13.7625 7.10938 13.7931 6.98438 13.7931 6.85938C13.7931 6.64062 13.7242 6.46094 13.5862 6.32031C13.4483 6.17969 13.272 6.10938 13.0575 6.10938C12.7816 6.10938 12.5671 6.21875 12.4138 6.4375L9.01151 11.9219L7.49427 10.375C7.34101 10.25 7.16476 10.1875 6.96553 10.1875C6.7663 10.1875 6.59005 10.2578 6.43679 10.3984C6.28354 10.5391 6.20691 10.7109 6.20691 10.9141C6.20691 11.1172 6.28354 11.2969 6.43679 11.4531L8.59771 13.6562C8.75097 13.8125 8.91955 13.8906 9.10346 13.8906H9.19542C9.44063 13.8594 9.62453 13.75 9.74714 13.5625L13.7012 7.23438Z" fill="#509F47"/>
</svg>
