<svg width="20" height="20" viewBox="0 0 20 20" fill="none" xmlns="http://www.w3.org/2000/svg">
<path fill-rule="evenodd" clip-rule="evenodd" d="M10 20C15.5229 20 20 15.5228 20 10C20 4.47717 15.5229 0 10 0C4.47714 0 0 4.47717 0 10C0 15.5228 4.47714 20 10 20ZM13.5499 6.98566C13.5356 7.0321 13.5171 7.07855 13.4943 7.125L9.54022 13.4531C9.41763 13.6406 9.23373 13.75 8.98853 13.7812H8.89655C8.71265 13.7812 8.54407 13.7031 8.39081 13.5469L6.22989 11.3438C6.07663 11.1875 6 11.0078 6 10.8047C6 10.6016 6.07663 10.4297 6.22989 10.2891C6.38315 10.1484 6.55939 10.0781 6.75864 10.0781C6.95786 10.0781 7.13409 10.1406 7.28735 10.2656L8.8046 11.8125L12.2069 6.32812C12.3602 6.10938 12.5747 6 12.8506 6C13.0651 6 13.2414 6.07031 13.3793 6.21094C13.5172 6.35156 13.5862 6.53125 13.5862 6.75C13.5862 6.82855 13.5741 6.9071 13.5499 6.98566Z" fill="#509F47"/>
</svg>
