<svg width="20" height="20" viewBox="0 0 20 20" fill="none" xmlns="http://www.w3.org/2000/svg">
<path fill-rule="evenodd" clip-rule="evenodd" d="M7.59099 6.49999C7.2981 6.2071 6.82322 6.2071 6.53033 6.49999C6.23744 6.79288 6.23744 7.26776 6.53033 7.56065L8.93934 9.96966L6.46967 12.4393C6.17678 12.7322 6.17678 13.2071 6.46967 13.5C6.76256 13.7929 7.23744 13.7929 7.53033 13.5L10 11.0303L12.4697 13.5C12.7626 13.7929 13.2374 13.7929 13.5303 13.5C13.8232 13.2071 13.8232 12.7322 13.5303 12.4393L11.0607 9.96966L13.4697 7.56065C13.7626 7.26776 13.7626 6.79288 13.4697 6.49999C13.1768 6.2071 12.7019 6.2071 12.409 6.49999L10 8.909L7.59099 6.49999Z" fill="#C13329"/>
</svg>
