<svg width="20" height="20" viewBox="0 0 20 20" fill="none" xmlns="http://www.w3.org/2000/svg">
<path fill-rule="evenodd" clip-rule="evenodd" d="M20 10C20 15.5228 15.5228 20 10 20C4.47717 20 0 15.5228 0 10C0 4.47717 4.47717 0 10 0C15.5228 0 20 4.47717 20 10ZM6.46967 13.4697C6.17676 13.1768 6.17676 12.7019 6.46967 12.409L8.93933 9.93933L6.53033 7.53033C6.23743 7.23743 6.23743 6.76257 6.53033 6.46967C6.82324 6.17676 7.2981 6.17676 7.591 6.46967L10 8.87866L12.409 6.46967C12.7019 6.17676 13.1768 6.17676 13.4697 6.46967C13.7626 6.76257 13.7626 7.23743 13.4697 7.53033L11.0607 9.93933L13.5303 12.409C13.8232 12.7019 13.8232 13.1768 13.5303 13.4697C13.2374 13.7626 12.7626 13.7626 12.4697 13.4697L10 11L7.53033 13.4697C7.23743 13.7626 6.76257 13.7626 6.46967 13.4697Z" fill="#C13329"/>
</svg>