<svg width="16" height="16" viewBox="0 0 16 16" fill="none" xmlns="http://www.w3.org/2000/svg">
<path d="M5.46781 16C6.93981 16 8.13448 14.8053 8.13448 13.3333V10.6667H5.46781C3.99581 10.6667 2.80115 11.8613 2.80115 13.3333C2.80115 14.8053 3.99581 16 5.46781 16Z" fill="#5BCB8A"/>
<path d="M2.80115 8C2.80115 6.528 3.99581 5.33334 5.46781 5.33334H8.13448V10.6667H5.46781C3.99581 10.6667 2.80115 9.47199 2.80115 8Z" fill="#9860F6"/>
<path d="M2.80115 2.6667C2.80115 1.1947 3.99581 3.05176e-05 5.46781 3.05176e-05H8.13448V5.33336H5.46781C3.99581 5.33336 2.80115 4.1387 2.80115 2.6667Z" fill="#E25A33"/>
<path d="M8.1344 3.05176e-05H10.8011C12.2731 3.05176e-05 13.4678 1.1947 13.4678 2.6667C13.4678 4.1387 12.2731 5.33336 10.8011 5.33336H8.1344V3.05176e-05Z" fill="#F07A69"/>
<path d="M13.4678 8C13.4678 9.47199 12.2731 10.6667 10.8011 10.6667C9.32907 10.6667 8.1344 9.47199 8.1344 8C8.1344 6.528 9.32907 5.33334 10.8011 5.33334C12.2731 5.33334 13.4678 6.528 13.4678 8Z" fill="#52BAF8"/>
</svg>
