<svg width="136" height="30" viewBox="0 0 136 30" fill="none" xmlns="http://www.w3.org/2000/svg">
<path d="M17.1191 0C19.759 0 21.8913 0.962733 23.5159 2.8882C25.1404 4.81366 25.9527 7.18427 25.9527 10C25.9527 12.8157 25.11 15.1863 23.4245 17.1118C21.739 19.0373 19.5762 20 16.9363 20H14.6213L20.5307 4.2236H9.32105L8.3463 8.63354H14.012L9.50382 20H0C1.34028 18.7164 2.4978 16.9669 3.47255 14.7516C4.4473 12.5362 4.93468 10.4969 4.93468 8.63354V8.57143V8.38509C4.93468 7.18427 4.67068 5.84886 4.14269 4.37888C3.6147 2.9089 2.98517 1.71843 2.25411 0.807453C2.05104 0.559006 1.82766 0.289855 1.58397 0H17.1191Z" fill="#E95F26"/>
<path d="M37.2532 0.196793H39.9755C40.4712 0.196793 40.8793 0.266035 41.2 0.404519C41.5207 0.535714 41.7722 0.706997 41.9544 0.918367C42.1439 1.12245 42.2751 1.35569 42.348 1.61808C42.4209 1.87318 42.4573 2.12099 42.4573 2.36152C42.4573 2.60204 42.4209 2.8535 42.348 3.11589C42.2751 3.37099 42.1439 3.60423 41.9544 3.8156C41.7722 4.01968 41.5207 4.19096 41.2 4.32945C40.8793 4.46064 40.4712 4.52624 39.9755 4.52624H38.3028V7.93732H37.2532V0.196793ZM38.3028 3.60787H39.6803C39.8844 3.60787 40.0849 3.59329 40.2817 3.56414C40.4857 3.5277 40.6643 3.46574 40.8174 3.37828C40.9777 3.29082 41.1053 3.16691 41.2 3.00656C41.2948 2.83892 41.3422 2.62391 41.3422 2.36152C41.3422 2.09913 41.2948 1.88776 41.2 1.72741C41.1053 1.55977 40.9777 1.43222 40.8174 1.34475C40.6643 1.25729 40.4857 1.19898 40.2817 1.16982C40.0849 1.13338 39.8844 1.11516 39.6803 1.11516H38.3028V3.60787Z" fill="#F1F6FA"/>
<path d="M45.5562 0.196793H46.6057V6.95335H50.1589V7.93732H45.5562V0.196793Z" fill="#F1F6FA"/>
<path d="M55.4748 0.196793H56.4259L59.7386 7.93732H58.5141L57.7379 6.02405H54.0535L53.2882 7.93732H52.0637L55.4748 0.196793ZM57.3552 5.10569L55.9121 1.55248H55.8902L54.4252 5.10569H57.3552Z" fill="#F1F6FA"/>
<path d="M63.1822 1.18076H60.6895V0.196793H66.7244V1.18076H64.2317V7.93732H63.1822V1.18076Z" fill="#F1F6FA"/>
<path d="M69.6641 0.196793H74.5293V1.18076H70.7137V3.60787H74.2669V4.59184H70.7137V7.93732H69.6641V0.196793Z" fill="#F1F6FA"/>
<path d="M81.3174 8.13411C80.727 8.13411 80.184 8.03207 79.6884 7.82799C79.1928 7.61662 78.7664 7.32872 78.4093 6.96429C78.0594 6.59985 77.7824 6.16982 77.5783 5.6742C77.3816 5.17857 77.2832 4.64286 77.2832 4.06706C77.2832 3.49125 77.3816 2.95554 77.5783 2.45991C77.7824 1.96429 78.0594 1.53426 78.4093 1.16982C78.7664 0.805393 79.1928 0.521137 79.6884 0.317055C80.184 0.105685 80.727 0 81.3174 0C81.9078 0 82.4508 0.105685 82.9464 0.317055C83.4421 0.521137 83.8648 0.805393 84.2146 1.16982C84.5718 1.53426 84.8488 1.96429 85.0455 2.45991C85.2496 2.95554 85.3517 3.49125 85.3517 4.06706C85.3517 4.64286 85.2496 5.17857 85.0455 5.6742C84.8488 6.16982 84.5718 6.59985 84.2146 6.96429C83.8648 7.32872 83.4421 7.61662 82.9464 7.82799C82.4508 8.03207 81.9078 8.13411 81.3174 8.13411ZM81.3174 7.15015C81.762 7.15015 82.1629 7.06997 82.52 6.90962C82.8772 6.74198 83.1833 6.51968 83.4384 6.24271C83.6935 5.96574 83.8903 5.6414 84.0288 5.26968C84.1673 4.89067 84.2365 4.4898 84.2365 4.06706C84.2365 3.64431 84.1673 3.24708 84.0288 2.87536C83.8903 2.49636 83.6935 2.16837 83.4384 1.8914C83.1833 1.61443 82.8772 1.39577 82.52 1.23542C82.1629 1.06778 81.762 0.983965 81.3174 0.983965C80.8728 0.983965 80.4719 1.06778 80.1148 1.23542C79.7576 1.39577 79.4515 1.61443 79.1964 1.8914C78.9413 2.16837 78.7445 2.49636 78.606 2.87536C78.4676 3.24708 78.3983 3.64431 78.3983 4.06706C78.3983 4.4898 78.4676 4.89067 78.606 5.26968C78.7445 5.6414 78.9413 5.96574 79.1964 6.24271C79.4515 6.51968 79.7576 6.74198 80.1148 6.90962C80.4719 7.06997 80.8728 7.15015 81.3174 7.15015Z" fill="#F1F6FA"/>
<path d="M88.6829 0.196793H91.4052C91.9009 0.196793 92.309 0.266035 92.6297 0.404519C92.9504 0.535714 93.2019 0.706997 93.3841 0.918367C93.5736 1.12245 93.7048 1.35569 93.7777 1.61808C93.8506 1.87318 93.887 2.12099 93.887 2.36152C93.887 2.60933 93.8433 2.84985 93.7558 3.08309C93.6683 3.30904 93.5408 3.51676 93.3732 3.70627C93.2128 3.88848 93.0124 4.04519 92.7718 4.17638C92.5386 4.30029 92.2762 4.37682 91.9847 4.40598L94.1822 7.93732H92.8702L90.9023 4.52624H89.7325V7.93732H88.6829V0.196793ZM89.7325 3.60787H91.11C91.3141 3.60787 91.5146 3.59329 91.7113 3.56414C91.9154 3.5277 92.094 3.46574 92.2471 3.37828C92.4074 3.29082 92.535 3.16691 92.6297 3.00656C92.7245 2.83892 92.7718 2.62391 92.7718 2.36152C92.7718 2.09913 92.7245 1.88776 92.6297 1.72741C92.535 1.55977 92.4074 1.43222 92.2471 1.34475C92.094 1.25729 91.9154 1.19898 91.7113 1.16982C91.5146 1.13338 91.3141 1.11516 91.11 1.11516H89.7325V3.60787Z" fill="#F1F6FA"/>
<path d="M97.1122 0.196793H98.6756L101.135 6.05685H101.179L103.617 0.196793H105.181V7.93732H104.131V1.57434H104.109L101.496 7.93732H100.797L98.1836 1.57434H98.1617V7.93732H97.1122V0.196793Z" fill="#F1F6FA"/>
<path d="M37.1111 11.1297H42.3699V12.7041H38.8166V14.1472H42.1731V15.7216H38.8166V17.2959H42.5666V18.8703H37.1111V11.1297Z" fill="#F1F6FA"/>
<path d="M47.6783 14.8251L45.12 11.1297H47.2629L48.9138 13.8411L50.499 11.1297H52.5654L50.0617 14.7923L52.8606 18.8703H50.7177L48.8263 15.7544L46.9896 18.8703H44.967L47.6783 14.8251Z" fill="#F1F6FA"/>
<path d="M55.4664 11.1297H58.3417C58.7426 11.1297 59.1216 11.1662 59.4788 11.2391C59.8359 11.312 60.1457 11.4395 60.4081 11.6217C60.6778 11.7966 60.8891 12.0372 61.0422 12.3433C61.2025 12.6421 61.2827 13.0211 61.2827 13.4803C61.2827 13.9322 61.2098 14.3112 61.0641 14.6173C60.9183 14.9235 60.7178 15.1676 60.4627 15.3499C60.2076 15.5321 59.9052 15.6633 59.5553 15.7434C59.2054 15.8163 58.8264 15.8528 58.4183 15.8528H57.1719V18.8703H55.4664V11.1297ZM57.1719 14.4096H58.3089C58.462 14.4096 58.6078 14.395 58.7463 14.3659C58.892 14.3367 59.0196 14.2894 59.1289 14.2238C59.2455 14.1509 59.3366 14.0561 59.4022 13.9395C59.4751 13.8156 59.5116 13.6625 59.5116 13.4803C59.5116 13.2835 59.4642 13.1268 59.3694 13.0102C59.282 12.8863 59.1654 12.7915 59.0196 12.7259C58.8811 12.6603 58.7244 12.6203 58.5495 12.6057C58.3745 12.5838 58.2069 12.5729 58.0466 12.5729H57.1719V14.4096Z" fill="#F1F6FA"/>
<path d="M64.2406 11.1297H69.4994V12.7041H65.9461V14.1472H69.3026V15.7216H65.9461V17.2959H69.6962V18.8703H64.2406V11.1297Z" fill="#F1F6FA"/>
<path d="M72.8836 11.1297H75.8793C76.2729 11.1297 76.6446 11.1698 76.9944 11.25C77.3516 11.3229 77.6613 11.4504 77.9237 11.6327C78.1934 11.8076 78.4048 12.0481 78.5578 12.3542C78.7182 12.6531 78.7984 13.0284 78.7984 13.4803C78.7984 14.027 78.6562 14.4934 78.372 14.8797C78.0877 15.2587 77.6723 15.4993 77.1256 15.6013L79.0936 18.8703H77.0491L75.431 15.7762H74.5892V18.8703H72.8836V11.1297ZM74.5892 14.3331H75.595C75.7481 14.3331 75.9084 14.3294 76.0761 14.3222C76.251 14.3076 76.4077 14.2748 76.5462 14.2238C76.6847 14.1655 76.7976 14.078 76.8851 13.9614C76.9799 13.8448 77.0272 13.6808 77.0272 13.4694C77.0272 13.2726 76.9871 13.1159 76.907 12.9993C76.8268 12.8827 76.7248 12.7952 76.6008 12.7369C76.4769 12.6713 76.3348 12.6275 76.1745 12.6057C76.0141 12.5838 75.8574 12.5729 75.7043 12.5729H74.5892V14.3331Z" fill="#F1F6FA"/>
<path d="M81.7733 11.1297H83.4788V18.8703H81.7733V11.1297Z" fill="#F1F6FA"/>
<path d="M86.9179 11.1297H92.1767V12.7041H88.6235V14.1472H91.9799V15.7216H88.6235V17.2959H92.3735V18.8703H86.9179V11.1297Z" fill="#F1F6FA"/>
<path d="M95.561 11.1297H97.8788L101.17 16.5087H101.191V11.1297H102.897V18.8703H100.667L97.2884 13.3601H97.2665V18.8703H95.561V11.1297Z" fill="#F1F6FA"/>
<path d="M111.36 13.1414C111.192 12.9373 110.985 12.7806 110.737 12.6713C110.496 12.562 110.216 12.5073 109.895 12.5073C109.574 12.5073 109.276 12.5692 108.999 12.6931C108.729 12.8171 108.492 12.992 108.288 13.2179C108.091 13.4366 107.934 13.699 107.818 14.0051C107.709 14.3112 107.654 14.6429 107.654 15C107.654 15.3644 107.709 15.6997 107.818 16.0058C107.934 16.3047 108.091 16.5671 108.288 16.793C108.485 17.0117 108.714 17.1829 108.977 17.3069C109.246 17.4308 109.534 17.4927 109.84 17.4927C110.19 17.4927 110.5 17.4198 110.77 17.2741C111.039 17.1283 111.262 16.9242 111.437 16.6618L112.858 17.7223C112.53 18.1815 112.114 18.5204 111.612 18.7391C111.109 18.9577 110.591 19.0671 110.059 19.0671C109.454 19.0671 108.897 18.9723 108.386 18.7828C107.876 18.5933 107.435 18.3236 107.063 17.9738C106.692 17.6166 106.4 17.1866 106.189 16.6837C105.985 16.1808 105.883 15.6195 105.883 15C105.883 14.3805 105.985 13.8192 106.189 13.3163C106.4 12.8134 106.692 12.387 107.063 12.0372C107.435 11.68 107.876 11.4067 108.386 11.2172C108.897 11.0277 109.454 10.9329 110.059 10.9329C110.278 10.9329 110.504 10.9548 110.737 10.9985C110.977 11.035 111.211 11.0969 111.437 11.1844C111.67 11.2719 111.892 11.3885 112.104 11.5343C112.315 11.68 112.504 11.8586 112.672 12.07L111.36 13.1414Z" fill="#F1F6FA"/>
<path d="M115.67 11.1297H120.929V12.7041H117.376V14.1472H120.732V15.7216H117.376V17.2959H121.126V18.8703H115.67V11.1297Z" fill="#F1F6FA"/>
<path d="M37.2532 22.0627H38.3028V25.277H42.3152V22.0627H43.3648V29.8032H42.3152V26.2609H38.3028V29.8032H37.2532V22.0627Z" fill="#F1F6FA"/>
<path d="M48.0864 22.0627V26.8076C48.0864 27.0481 48.1192 27.2996 48.1848 27.562C48.2504 27.8171 48.3598 28.0539 48.5128 28.2726C48.6659 28.4913 48.8663 28.6698 49.1141 28.8083C49.362 28.9468 49.6681 29.016 50.0325 29.016C50.3969 29.016 50.7031 28.9468 50.9509 28.8083C51.1987 28.6698 51.3991 28.4913 51.5522 28.2726C51.7053 28.0539 51.8146 27.8171 51.8802 27.562C51.9458 27.2996 51.9786 27.0481 51.9786 26.8076V22.0627H53.0281V26.9716C53.0281 27.4235 52.9516 27.8353 52.7985 28.207C52.6455 28.5714 52.4341 28.8885 52.1644 29.1582C51.8948 29.4278 51.5777 29.6356 51.2133 29.7813C50.8488 29.9271 50.4553 30 50.0325 30C49.6098 30 49.2162 29.9271 48.8518 29.7813C48.4873 29.6356 48.1703 29.4278 47.9006 29.1582C47.6309 28.8885 47.4195 28.5714 47.2665 28.207C47.1134 27.8353 47.0369 27.4235 47.0369 26.9716V22.0627H48.0864Z" fill="#F1F6FA"/>
<path d="M56.6991 22.0627H59.3886C59.7239 22.0627 60.0336 22.1028 60.3179 22.1829C60.6094 22.2631 60.8572 22.3834 61.0613 22.5437C61.2727 22.6968 61.4367 22.8972 61.5533 23.145C61.6772 23.3856 61.7392 23.6698 61.7392 23.9978C61.7392 24.4424 61.6153 24.8068 61.3674 25.0911C61.1196 25.3681 60.7989 25.5722 60.4053 25.7034V25.7252C60.6386 25.7398 60.8572 25.8017 61.0613 25.9111C61.2654 26.0131 61.4403 26.1516 61.5861 26.3265C61.7392 26.4942 61.8594 26.691 61.9469 26.9169C62.0343 27.1429 62.0781 27.387 62.0781 27.6494C62.0781 27.9993 62.0052 28.309 61.8594 28.5787C61.7209 28.8411 61.5278 29.0634 61.28 29.2456C61.0322 29.4278 60.7443 29.5663 60.4163 29.6611C60.0883 29.7558 59.7348 29.8032 59.3558 29.8032H56.6991V22.0627ZM57.7486 25.277H59.1809C59.3776 25.277 59.5635 25.2587 59.7384 25.2223C59.9134 25.1786 60.0664 25.1093 60.1976 25.0146C60.3288 24.9198 60.4308 24.7996 60.5037 24.6538C60.5839 24.508 60.624 24.3294 60.624 24.1181C60.624 23.812 60.5256 23.5459 60.3288 23.32C60.132 23.094 59.8222 22.981 59.3995 22.981H57.7486V25.277ZM57.7486 28.8848H59.2902C59.4505 28.8848 59.6255 28.8703 59.815 28.8411C60.0118 28.8047 60.194 28.7391 60.3616 28.6443C60.5292 28.5423 60.6714 28.4074 60.788 28.2398C60.9046 28.0722 60.9629 27.8499 60.9629 27.5729C60.9629 27.1137 60.8135 26.7711 60.5147 26.5452C60.2158 26.312 59.8113 26.1953 59.3011 26.1953H57.7486V28.8848Z" fill="#F1F6FA"/>
</svg>
