<svg width="16" height="16" viewBox="0 0 16 16" fill="none" xmlns="http://www.w3.org/2000/svg">
<mask id="mask0_928_35900" style="mask-type:alpha" maskUnits="userSpaceOnUse" x="2" y="0" width="13" height="16">
<path d="M2.49517 14.7122L2.00057 1.53345C1.98424 1.09821 2.31797 0.729349 2.75267 0.70218L13.9621 0.0015905C14.4046 -0.026064 14.7857 0.310212 14.8133 0.752685C14.8144 0.769356 14.8149 0.786055 14.8149 0.802758V15.1633C14.8149 15.6067 14.4555 15.966 14.0122 15.966C14.0002 15.966 13.9882 15.9658 13.9762 15.9652L3.26132 15.484C2.84402 15.4653 2.51084 15.1296 2.49517 14.7122Z" fill="white"/>
</mask>
<g mask="url(#mask0_928_35900)">
<path d="M2.49517 14.7122L2.00057 1.53345C1.98424 1.09821 2.31797 0.729349 2.75267 0.70218L13.9621 0.0015905C14.4046 -0.026064 14.7857 0.310212 14.8133 0.752685C14.8144 0.769356 14.8149 0.786055 14.8149 0.802758V15.1633C14.8149 15.6067 14.4555 15.966 14.0122 15.966C14.0002 15.966 13.9882 15.9658 13.9762 15.9652L3.26132 15.484C2.84402 15.4653 2.51084 15.1296 2.49517 14.7122Z" fill="#FF4785"/>
<path d="M11.4628 1.96248L11.5394 0.120952L13.0788 0L13.1451 1.89911C13.1474 1.9652 13.0957 2.02065 13.0296 2.02296C13.0013 2.02395 12.9736 2.01487 12.9514 1.99735L12.3577 1.5297L11.6549 2.06286C11.6022 2.10283 11.5271 2.09251 11.4871 2.03982C11.4703 2.01765 11.4617 1.9903 11.4628 1.96248ZM9.49411 6.01782C9.49411 6.33013 11.5978 6.18045 11.8802 5.96107C11.8802 3.83432 10.739 2.71675 8.64935 2.71675C6.55969 2.71675 5.38888 3.85171 5.38888 5.55415C5.38888 8.51924 9.39037 8.57599 9.39037 10.1933C9.39037 10.6473 9.16807 10.9169 8.679 10.9169C8.04172 10.9169 7.78978 10.5914 7.81942 9.4848C7.81942 9.24474 5.38888 9.1699 5.31478 9.4848C5.12609 12.1665 6.79681 12.94 8.70864 12.94C10.5612 12.94 12.0136 11.9525 12.0136 10.1649C12.0136 6.98704 7.9528 7.07217 7.9528 5.49741C7.9528 4.85899 8.42705 4.77387 8.70864 4.77387C9.00504 4.77387 9.53857 4.82611 9.49411 6.01782Z" fill="white"/>
</g>
</svg>
