<svg width="16" height="16" viewBox="0 0 16 16" fill="none" xmlns="http://www.w3.org/2000/svg">
<g clip-path="url(#clip0_792_48730)">
<path fill-rule="evenodd" clip-rule="evenodd" d="M11.1325 9.79085C11.0983 9.79472 11.063 9.79582 11.0288 9.79913C10.8914 7.9735 10.1411 6.47339 9.0906 5.77327C9.50383 5.68775 9.94852 5.64141 10.4086 5.64141C12.4897 5.64141 14.248 6.60029 14.248 7.73516C14.248 8.69791 12.8798 9.60051 11.1325 9.79085ZM7.73559 14.2482C6.7734 14.2482 5.87024 12.8794 5.6799 11.1326C5.67604 11.0979 5.67438 11.0631 5.67162 11.0284C7.49725 10.8904 8.99736 10.1412 9.69693 9.08962C9.783 9.50341 9.8299 9.94754 9.8299 10.4082C9.8299 12.4898 8.87046 14.2482 7.73559 14.2482ZM1.2226 7.73516C1.2226 6.77242 2.5914 5.87037 4.33868 5.68003C4.37289 5.67616 4.4082 5.67451 4.44241 5.6712C4.57978 7.49682 5.32956 8.99694 6.38058 9.69706C5.96734 9.78203 5.52266 9.82947 5.06253 9.82947C2.98147 9.82947 1.2226 8.87059 1.2226 7.73516ZM6.62664 7.73792C6.62664 7.12662 7.12374 6.62953 7.73559 6.62953C8.34689 6.62953 8.84453 7.12662 8.84453 7.73792C8.84453 8.34922 8.34689 8.84687 7.73559 8.84687C7.12374 8.84687 6.62664 8.34922 6.62664 7.73792ZM7.73559 1.22272C8.69778 1.22272 9.60094 2.59097 9.79073 4.33826C9.79459 4.37246 9.79624 4.40777 9.79955 4.44253C7.97338 4.57991 6.47437 5.32914 5.77369 6.38015C5.68817 5.96692 5.64128 5.52279 5.64128 5.06211C5.64128 2.98049 6.60016 1.22272 7.73559 1.22272ZM11.0255 4.44308C11.0194 4.36363 11.0144 4.28419 11.0062 4.20584C10.7408 1.76892 9.36535 0.00012207 7.73559 0.00012207C6.01313 0.00012207 4.63716 1.9085 4.44296 4.44584C4.36351 4.45136 4.28462 4.45632 4.20627 4.4646C1.7688 4.72997 0 6.1054 0 7.73516C0 9.45762 1.90838 10.8341 4.44572 11.0278C4.45234 11.1067 4.4562 11.1861 4.46503 11.2645C4.7304 13.7014 6.10582 15.4702 7.73559 15.4702C9.45804 15.4702 10.834 13.5624 11.0282 11.025C11.1071 11.019 11.1866 11.0146 11.2644 11.0057C13.7018 10.7404 15.4706 9.36493 15.4706 7.73516C15.4706 6.01216 13.5622 4.63618 11.0255 4.44308Z" fill="#1F2C36"/>
</g>
<defs>
<clipPath id="clip0_792_48730">
<rect width="16" height="15.9997" fill="white"/>
</clipPath>
</defs>
</svg>
