<svg fill="none" xmlns="http://www.w3.org/2000/svg" viewBox="0 0 16 16"><path fill-rule="evenodd" clip-rule="evenodd" d="M4.75 2C3.23122 2 2 3.23122 2 4.75V11.25C2 12.7688 3.23122 14 4.75 14H9.04657C9.77592 14 10.4754 13.7103 10.9911 13.1945L13.1945 10.9911C13.7103 10.4754 14 9.77592 14 9.04657V4.75C14 3.23122 12.7688 2 11.25 2H4.75ZM3.5 4.75C3.5 4.05964 4.05964 3.5 4.75 3.5H11.25C11.9404 3.5 12.5 4.05964 12.5 4.75V9.00458C12.4726 9.00155 12.4448 9 12.4167 9H11.0833C9.93274 9 9 9.93274 9 11.0833V12.4167C9 12.4448 9.00155 12.4726 9.00458 12.5H4.75C4.05964 12.5 3.5 11.9404 3.5 11.25V4.75ZM10.5 11.5643L11.5643 10.5H11.0833C10.7612 10.5 10.5 10.7612 10.5 11.0833V11.5643ZM5.75 5C5.33579 5 5 5.33579 5 5.75C5 6.16421 5.33579 6.5 5.75 6.5H10.25C10.6642 6.5 11 6.16421 11 5.75C11 5.33579 10.6642 5 10.25 5H5.75ZM5 8.75C5 8.33579 5.33579 8 5.75 8H7.25C7.66421 8 8 8.33579 8 8.75C8 9.16421 7.66421 9.5 7.25 9.5H5.75C5.33579 9.5 5 9.16421 5 8.75Z" fill="#000"/></svg>