<svg width="24" height="24" viewBox="0 0 24 24" fill="none" xmlns="http://www.w3.org/2000/svg">
<path fill-rule="evenodd" clip-rule="evenodd" d="M13.3105 3.62891C14.6247 3.41084 15.9723 3.50511 17.2432 3.9043C17.566 4.00579 17.786 4.30514 17.7861 4.64356C17.786 4.9818 17.5659 5.28128 17.2432 5.38282C15.8353 5.82592 14.6056 6.70658 13.7324 7.89649C12.8592 9.08649 12.388 10.524 12.3877 12L12.3936 12.2764C12.4488 13.6548 12.9138 14.988 13.7324 16.1035C14.6056 17.2934 15.8354 18.1741 17.2432 18.6172C17.5659 18.7188 17.7861 19.0181 17.7861 19.3565C17.7859 19.6948 17.566 19.9943 17.2432 20.0957C15.9723 20.4949 14.6247 20.5892 13.3105 20.3711C11.9967 20.153 10.7524 19.6289 9.67871 18.8408C8.60494 18.0526 7.73174 17.0223 7.12988 15.834C6.52806 14.6457 6.21391 13.332 6.21387 12C6.21387 10.668 6.52809 9.35439 7.12988 8.16602C7.73172 6.97768 8.60493 5.94745 9.67871 5.15919C10.7524 4.37105 11.9966 3.84704 13.3105 3.62891ZM14.4258 5.07032C14.138 5.08172 13.8501 5.10983 13.5645 5.15723C12.4904 5.3355 11.4733 5.76494 10.5957 6.40919C9.71823 7.05341 9.00454 7.89509 8.5127 8.86622C8.02084 9.83751 7.76465 10.9113 7.76465 12C7.76469 13.0887 8.02081 14.1625 8.5127 15.1338C9.00456 16.1049 9.71823 16.9466 10.5957 17.5908C11.4733 18.235 12.4905 18.6645 13.5645 18.8428C13.8501 18.8902 14.138 18.9173 14.4258 18.9287C13.6843 18.4044 13.0264 17.7618 12.4824 17.0205C11.4141 15.5647 10.8383 13.8057 10.8379 12L10.8447 11.6621C10.9122 9.97562 11.4809 8.34443 12.4824 6.9795C13.0265 6.23801 13.6841 5.5947 14.4258 5.07032Z" fill="#1C1C1C"/>
</svg>
