<svg width="40" height="40" viewBox="0 0 40 40" fill="none" xmlns="http://www.w3.org/2000/svg">
<path d="M10 11C10 8.79086 11.7909 7 14 7H23.8667L30.8 13.9333V29C30.8 31.2091 29.0091 33 26.8 33H14C11.7909 33 10 31.2091 10 29V11Z" fill="white"/>
<path d="M14 7.5H23.6592L30.2998 14.1406V29C30.2998 30.933 28.7328 32.5 26.7998 32.5H14C12.067 32.5 10.5 30.933 10.5 29V11C10.5 9.067 12.067 7.5 14 7.5Z" stroke="black" stroke-opacity="0.075"/>
<path d="M23.4667 7L30.4 13.9333H27.4667C25.2575 13.9333 23.4667 12.1425 23.4667 9.93333V7Z" fill="white"/>
<path d="M29.1932 13.4336H27.4667C25.5338 13.4336 23.9668 11.8665 23.9667 9.93359V8.20703L29.1932 13.4336Z" stroke="black" stroke-opacity="0.075"/>
<path fill-rule="evenodd" clip-rule="evenodd" d="M21.6096 20.3603C21.8403 20.1296 22.1532 20 22.4794 20H24.3244C24.664 20 24.9394 20.2753 24.9394 20.615C24.9394 20.9547 24.664 21.23 24.3244 21.23L22.4794 21.23V22.46H23.7094C24.0356 22.46 24.3485 22.5896 24.5791 22.8203C24.8098 23.0509 24.9394 23.3638 24.9394 23.69V24.92C24.9394 25.2462 24.8098 25.5591 24.5791 25.7897C24.3485 26.0204 24.0356 26.15 23.7094 26.15H21.8644C21.5247 26.15 21.2494 25.8747 21.2494 25.535C21.2494 25.1953 21.5247 24.92 21.8644 24.92H23.7094V23.69H22.4794C22.1532 23.69 21.8403 23.5604 21.6096 23.3297C21.379 23.0991 21.2494 22.7862 21.2494 22.46V21.23C21.2494 20.9038 21.379 20.5909 21.6096 20.3603Z" fill="#0059D6"/>
<path d="M17.62 25.5752V21.1504H16.4452C16.1276 21.1504 15.87 20.8928 15.87 20.5752C15.87 20.2576 16.1276 20 16.4452 20H19.9452L20.0614 20.0117C20.3233 20.0654 20.5204 20.2974 20.5204 20.5752C20.5204 20.853 20.3233 21.0849 20.0614 21.1387L19.9452 21.1504H18.7704V25.5752C18.7704 25.8928 18.5128 26.1504 18.1952 26.1504C17.8776 26.1504 17.62 25.8928 17.62 25.5752Z" fill="#0059D6"/>
</svg>
