<svg width="40" height="40" viewBox="0 0 40 40" fill="none" xmlns="http://www.w3.org/2000/svg">
<path d="M9.59998 11C9.59998 8.79086 11.3908 7 13.6 7H23.4666L30.4 13.9333V29C30.4 31.2091 28.6091 33 26.4 33H13.6C11.3908 33 9.59998 31.2091 9.59998 29V11Z" fill="white"/>
<path d="M13.6 7.5H23.2592L29.8998 14.1406V29C29.8998 30.933 28.3328 32.5 26.3998 32.5H13.6C11.667 32.5 10.1 30.933 10.1 29V11C10.1 9.067 11.667 7.5 13.6 7.5Z" stroke="black" stroke-opacity="0.075"/>
<rect x="15.1" y="17.8" width="9.8" height="8.4" rx="1.12" stroke="#000001" stroke-width="0.7"/>
<path d="M17.2001 23.925V20.25L18.4251 21.475L19.6501 20.25V23.925" stroke="#000001" stroke-width="0.7" stroke-linecap="round" stroke-linejoin="round"/>
<path d="M20.7875 22.7L22.0125 23.925M22.0125 23.925L23.2375 22.7M22.0125 23.925V20.25" stroke="#000001" stroke-width="0.7" stroke-linecap="round" stroke-linejoin="round"/>
<path d="M23.4667 7L30.4 13.9333H27.4667C25.2575 13.9333 23.4667 12.1425 23.4667 9.93333V7Z" fill="white"/>
<path d="M29.1932 13.4336H27.4667C25.5338 13.4336 23.9668 11.8665 23.9667 9.93359V8.20703L29.1932 13.4336Z" stroke="black" stroke-opacity="0.075"/>
</svg>
