<svg width="40" height="40" viewBox="0 0 40 40" fill="none" xmlns="http://www.w3.org/2000/svg">
<path d="M9.59998 11C9.59998 8.79086 11.3908 7 13.6 7H23.4666L30.4 13.9333V29C30.4 31.2091 28.6091 33 26.4 33H13.6C11.3908 33 9.59998 31.2091 9.59998 29V11Z" fill="white"/>
<path d="M13.6 7.5H23.2592L29.8998 14.1406V29C29.8998 30.933 28.3328 32.5 26.3998 32.5H13.6C11.667 32.5 10.1 30.933 10.1 29V11C10.1 9.067 11.667 7.5 13.6 7.5Z" stroke="black" stroke-opacity="0.075"/>
<path d="M24.3201 17.1L23.5334 25.92L19.9945 26.9L16.4665 25.92L15.6798 17.1H24.3201Z" fill="#264DE4"/>
<path d="M22.8583 25.3565L23.5334 17.8214H20V26.1514L22.8583 25.3565Z" fill="#2965F1"/>
<path d="M17.4819 21.0936L17.5799 22.1743H20V21.0936H17.4819Z" fill="#EBEBEB"/>
<path d="M20 18.9022H19.9973H17.2887L17.3867 19.9856H20V18.9022Z" fill="#EBEBEB"/>
<path d="M20 25.0271V23.9028H19.9946L18.7913 23.5789L18.7124 22.7159H18.1271H17.6262L17.7787 24.4146L19.9946 25.0298L20 25.0271Z" fill="#EBEBEB"/>
<path d="M21.3284 22.1743L21.2031 23.5762L19.9972 23.9029V25.0272L22.2131 24.4147L22.2294 24.2323L22.4853 21.3821L22.5098 21.0935L22.7058 18.9022H19.9972V19.9856H21.5216L21.4209 21.0935H19.9972V22.1743H21.3284Z" fill="white"/>
<path d="M24.3201 17.1L23.5334 25.92L19.9945 26.9L16.4665 25.92L15.6798 17.1H24.3201Z" stroke="#264DE4" stroke-width="0.875" stroke-miterlimit="10"/>
<path d="M23.4667 7L30.4 13.9333H27.4667C25.2575 13.9333 23.4667 12.1425 23.4667 9.93333V7Z" fill="white"/>
<path d="M29.1932 13.4336H27.4667C25.5338 13.4336 23.9668 11.8665 23.9667 9.93359V8.20703L29.1932 13.4336Z" stroke="black" stroke-opacity="0.075"/>
</svg>
