<svg width="40" height="40" viewBox="0 0 40 40" fill="none" xmlns="http://www.w3.org/2000/svg">
<path d="M9.59998 11C9.59998 8.79086 11.3908 7 13.6 7H23.4666L30.4 13.9333V29C30.4 31.2091 28.6091 33 26.4 33H13.6C11.3908 33 9.59998 31.2091 9.59998 29V11Z" fill="white"/>
<path d="M13.6 7.5H23.2592L29.8998 14.1406V29C29.8998 30.933 28.3328 32.5 26.3998 32.5H13.6C11.667 32.5 10.1 30.933 10.1 29V11C10.1 9.067 11.667 7.5 13.6 7.5Z" stroke="black" stroke-opacity="0.075"/>
<path d="M25.8996 22.0049C25.8996 21.2241 24.9212 20.4854 23.4212 20.0254C23.7678 18.4962 23.6123 17.2813 22.9352 16.8925C22.7797 16.8018 22.5951 16.7565 22.3974 16.7565V17.291C22.5076 17.291 22.5983 17.3137 22.6728 17.3526C23 17.5405 23.1426 18.2532 23.0292 19.1701C23.0033 19.3969 22.9579 19.6334 22.9061 19.8763C22.4363 19.7597 21.9212 19.6722 21.3802 19.6139C21.0562 19.1701 20.7193 18.7651 20.3791 18.412C21.1631 17.683 21.8985 17.2846 22.3974 17.2846V16.75C21.7365 16.75 20.8715 17.2198 19.9968 18.0362C19.1221 17.223 18.2571 16.7565 17.5961 16.7565V17.291C18.0951 17.291 18.8305 17.6863 19.6145 18.412C19.2776 18.7651 18.9406 19.1668 18.6231 19.6107C18.0789 19.669 17.567 19.7565 17.094 19.8763C17.0389 19.6366 16.9968 19.4033 16.9676 19.1798C16.8542 18.263 16.9936 17.547 17.3175 17.3591C17.3888 17.317 17.4828 17.2975 17.5929 17.2975V16.763C17.392 16.763 17.2074 16.8051 17.0486 16.899C16.3748 17.2878 16.2225 18.5027 16.5691 20.0254C15.0756 20.4854 14.1005 21.2241 14.1005 22.0016C14.1005 22.7792 15.0789 23.5211 16.5789 23.9811C16.2322 25.5103 16.3877 26.7252 17.0648 27.1139C17.2203 27.2046 17.405 27.25 17.6059 27.25C18.2668 27.25 19.1318 26.7802 20.0065 25.9638C20.8812 26.777 21.7463 27.2435 22.4072 27.2435C22.608 27.2435 22.7927 27.2014 22.9514 27.1075C23.6253 26.7187 23.7776 25.5038 23.4309 23.9811C24.9212 23.5211 25.8931 22.7824 25.8931 22.0049H25.8996ZM22.77 20.4012C22.6825 20.7122 22.5691 21.0297 22.446 21.3504C22.3488 21.1593 22.2452 20.9649 22.1318 20.7738C22.0216 20.5826 21.905 20.3947 21.7851 20.21C22.1253 20.2619 22.4558 20.3234 22.77 20.4012ZM21.6685 22.9606C21.4806 23.2846 21.2894 23.5923 21.0886 23.8774C20.7322 23.9098 20.3694 23.926 20.0033 23.926C19.6372 23.926 19.2776 23.9098 18.9212 23.8807C18.7203 23.5956 18.5259 23.291 18.3413 22.9671C18.1599 22.6528 17.9914 22.3321 17.8424 22.0113C17.9914 21.6906 18.1599 21.3666 18.3413 21.0524C18.5292 20.7284 18.7203 20.4206 18.9212 20.1355C19.2776 20.1031 19.6404 20.0869 20.0065 20.0869C20.3726 20.0869 20.7322 20.1031 21.0886 20.1323C21.2894 20.4174 21.4838 20.7219 21.6685 21.0459C21.8499 21.3602 22.0184 21.6809 22.1674 22.0016C22.0151 22.3224 21.8499 22.6463 21.6685 22.9606ZM22.446 22.6496C22.5756 22.9703 22.6858 23.2943 22.7765 23.6053C22.4622 23.683 22.1318 23.7478 21.7851 23.7964C21.9018 23.6118 22.0216 23.4206 22.1318 23.2262C22.2419 23.0351 22.3456 22.8407 22.4428 22.6463L22.446 22.6496ZM20.0098 25.2122C19.7862 24.9822 19.5627 24.723 19.3424 24.4444C19.5594 24.4541 19.7797 24.4606 20.0033 24.4606C20.2268 24.4606 20.4536 24.4573 20.6707 24.4444C20.4536 24.7262 20.2301 24.9822 20.0098 25.2122ZM18.2214 23.7964C17.8812 23.7446 17.5508 23.683 17.2365 23.6053C17.324 23.2943 17.4374 22.9768 17.5605 22.656C17.6577 22.8472 17.7614 23.0416 17.8748 23.2327C17.9882 23.4239 18.1015 23.6118 18.2214 23.7964ZM19.9968 18.7975C20.2203 19.0275 20.4439 19.2867 20.6642 19.5653C20.4471 19.5556 20.2268 19.5491 20.0033 19.5491C19.7797 19.5491 19.5529 19.5524 19.3359 19.5653C19.5529 19.2835 19.7765 19.0275 19.9968 18.7975ZM18.2182 20.2133C18.1015 20.3979 17.9817 20.5891 17.8715 20.7835C17.7614 20.9746 17.6577 21.169 17.5605 21.3602C17.4309 21.0394 17.3208 20.7154 17.2301 20.4044C17.5443 20.3299 17.8748 20.2651 18.2214 20.2133H18.2182ZM16.0443 23.2198C15.1923 22.8569 14.6447 22.3807 14.6447 22.0049C14.6447 21.629 15.1955 21.1496 16.0443 20.79C16.2517 20.7025 16.4752 20.6215 16.7085 20.547C16.8445 21.0167 17.0259 21.5092 17.2495 22.0113C17.0292 22.5103 16.851 22.9995 16.7149 23.466C16.4784 23.3915 16.2517 23.3105 16.0411 23.2198H16.0443ZM17.337 26.6539C17.0098 26.466 16.8672 25.7532 16.9806 24.8364C17.0065 24.6096 17.0519 24.3731 17.1037 24.1301C17.5735 24.2468 18.0886 24.3342 18.6296 24.3925C18.9536 24.8364 19.2905 25.2414 19.6307 25.5945C18.8467 26.3234 18.1113 26.7219 17.6123 26.7219C17.5054 26.7219 17.4115 26.6992 17.3402 26.6571L17.337 26.6539ZM23.0357 24.8234C23.1491 25.7403 23.0098 26.4563 22.6858 26.6442C22.6145 26.6863 22.5205 26.7057 22.4104 26.7057C21.9115 26.7057 21.1761 26.3105 20.392 25.5848C20.729 25.2316 21.0659 24.8299 21.3834 24.3861C21.9277 24.3278 22.4396 24.2403 22.9126 24.1204C22.9676 24.3634 23.0098 24.5967 23.0389 24.8202L23.0357 24.8234ZM23.9622 23.2198C23.7549 23.3072 23.5313 23.3882 23.2981 23.4627C23.162 22.993 22.9806 22.5005 22.7571 21.9984C22.9774 21.4995 23.1555 21.0103 23.2916 20.5437C23.5281 20.6183 23.7549 20.6992 23.9655 20.79C24.8175 21.1528 25.365 21.629 25.365 22.0049C25.365 22.3807 24.811 22.8602 23.9622 23.2198Z" fill="#61DAFB"/>
<path d="M20.0033 23.1031C20.6099 23.1031 21.1016 22.6114 21.1016 22.0048C21.1016 21.3983 20.6099 20.9066 20.0033 20.9066C19.3967 20.9066 18.905 21.3983 18.905 22.0048C18.905 22.6114 19.3967 23.1031 20.0033 23.1031Z" fill="#61DAFB"/>
<path d="M23.4667 7L30.4 13.9333H27.4667C25.2575 13.9333 23.4667 12.1425 23.4667 9.93333V7Z" fill="white"/>
<path d="M29.1932 13.4336H27.4667C25.5338 13.4336 23.9668 11.8665 23.9667 9.93359V8.20703L29.1932 13.4336Z" stroke="black" stroke-opacity="0.075"/>
</svg>
