<svg width="40" height="40" viewBox="0 0 40 40" fill="none" xmlns="http://www.w3.org/2000/svg">
<path d="M10 11C10 8.79086 11.7909 7 14 7H23.8667L30.8 13.9333V29C30.8 31.2091 29.0091 33 26.8 33H14C11.7909 33 10 31.2091 10 29V11Z" fill="#1887D5"/>
<path fill-rule="evenodd" clip-rule="evenodd" d="M18.6596 20.3603C18.8902 20.1296 19.2031 20 19.5293 20H21.3743C21.714 20 21.9893 20.2753 21.9893 20.615C21.9893 20.9547 21.714 21.23 21.3743 21.23L19.5293 21.23V22.46H20.7593C21.0855 22.46 21.3984 22.5896 21.6291 22.8203C21.8597 23.0509 21.9893 23.3638 21.9893 23.69V24.92C21.9893 25.2462 21.8597 25.5591 21.6291 25.7897C21.3984 26.0204 21.0855 26.15 20.7593 26.15H18.9143C18.5747 26.15 18.2993 25.8747 18.2993 25.535C18.2993 25.1953 18.5747 24.92 18.9143 24.92H20.7593V23.69H19.5293C19.2031 23.69 18.8902 23.5604 18.6596 23.3297C18.4289 23.0991 18.2993 22.7862 18.2993 22.46V21.23C18.2993 20.9038 18.4289 20.5909 18.6596 20.3603Z" fill="white"/>
<path d="M25.6848 21.9756C25.6848 21.5201 25.3161 21.1506 24.8606 21.1504H24.0354V25H24.8606C25.3161 24.9998 25.6848 24.6303 25.6848 24.1748V21.9756ZM26.8352 24.1748C26.8352 25.2655 25.9512 26.1502 24.8606 26.1504H23.5598C23.1873 26.1502 22.8852 25.8481 22.885 25.4756V20.6748C22.8852 20.3023 23.1873 20.0002 23.5598 20H24.8606C25.9512 20.0002 26.8352 20.8849 26.8352 21.9756V24.1748Z" fill="white"/>
<path fill-rule="evenodd" clip-rule="evenodd" d="M13.96 20.615C13.96 20.2753 14.2222 20 14.5457 20H15.7171C16.1831 20 16.6301 20.1944 16.9596 20.5404C17.2891 20.8864 17.4742 21.3557 17.4742 21.845C17.4742 22.3343 17.2891 22.8036 16.9596 23.1496C16.6301 23.4956 16.1831 23.69 15.7171 23.69H15.1314V25.535C15.1314 25.8747 14.8692 26.15 14.5457 26.15C14.2222 26.15 13.96 25.8747 13.96 25.535V20.615ZM15.1314 22.46H15.7171C15.8724 22.46 16.0214 22.3952 16.1313 22.2799C16.2411 22.1645 16.3028 22.0081 16.3028 21.845C16.3028 21.6819 16.2411 21.5255 16.1313 21.4101C16.0214 21.2948 15.8724 21.23 15.7171 21.23H15.1314V22.46Z" fill="white"/>
<path d="M23.8667 7L30.8 13.9333H27.8667C25.6576 13.9333 23.8667 12.1425 23.8667 9.93333V7Z" fill="white" fill-opacity="0.2"/>
</svg>
