<svg width="40" height="40" viewBox="0 0 40 40" fill="none" xmlns="http://www.w3.org/2000/svg">
<path d="M9.59998 11C9.59998 8.79086 11.3908 7 13.6 7H23.4666L30.4 13.9333V29C30.4 31.2091 28.6091 33 26.4 33H13.6C11.3908 33 9.59998 31.2091 9.59998 29V11Z" fill="#1757B7"/>
<path d="M23.4667 7L30.4 13.9333H27.4667C25.2575 13.9333 23.4667 12.1425 23.4667 9.93333V7Z" fill="white" fill-opacity="0.2"/>
<rect x="19.5" y="11" width="2.5" height="1" rx="0.5" fill="white"/>
<rect x="19.5" y="13.5" width="4.5" height="1" rx="0.5" fill="white"/>
<rect x="12" y="26" width="6" height="1" rx="0.5" fill="white"/>
<rect x="19.5" y="16" width="8.5" height="1" rx="0.5" fill="white"/>
<rect x="19" y="26" width="9" height="1" rx="0.5" fill="white"/>
<rect x="12" y="18.5" width="11" height="1" rx="0.5" fill="white"/>
<rect x="24" y="18.5" width="4" height="1" rx="0.5" fill="white"/>
<rect x="12" y="21" width="4" height="1" rx="0.5" fill="white"/>
<rect x="24" y="28.5" width="4" height="1" rx="0.5" fill="white"/>
<rect x="17" y="21" width="4" height="1" rx="0.5" fill="white"/>
<rect x="12" y="28.5" width="4" height="1" rx="0.5" fill="white"/>
<rect x="22" y="21" width="6" height="1" rx="0.5" fill="white"/>
<rect x="17" y="28.5" width="6" height="1" rx="0.5" fill="white"/>
<rect x="12" y="23.5" width="10" height="1" rx="0.5" fill="white"/>
<rect x="23" y="23.5" width="5" height="1" rx="0.5" fill="white"/>
<path d="M17.5107 11.0107C17.8364 11.0718 18.0513 11.3852 17.9902 11.7109L17.0898 16.5107C17.0366 16.7944 16.7887 17 16.5 17H15.9004C15.6117 17 15.3638 16.7945 15.3105 16.5107L15 14.8555L14.6904 16.5107C14.6372 16.7944 14.3892 16.9999 14.1006 17H13.5C13.2114 16.9998 12.9634 16.7944 12.9102 16.5107L12.0107 11.7109C11.9497 11.3852 12.1645 11.0718 12.4902 11.0107C12.8157 10.9499 13.1293 11.1638 13.1904 11.4893L13.8008 14.7441L14.4102 11.4893C14.4108 11.4856 14.4123 11.4821 14.4131 11.4785C14.4259 11.4167 14.4497 11.3587 14.4805 11.3047C14.4882 11.2911 14.4942 11.2765 14.5029 11.2637C14.5119 11.2504 14.5232 11.239 14.5332 11.2266C14.5463 11.2103 14.5586 11.1935 14.5732 11.1787L14.5791 11.1729C14.5886 11.1635 14.5992 11.1553 14.6094 11.1465C14.6278 11.1306 14.6458 11.1141 14.666 11.1006C14.6743 11.095 14.6837 11.0911 14.6924 11.0859C14.7175 11.0709 14.7434 11.0572 14.7705 11.0459C14.7777 11.0429 14.7856 11.0418 14.793 11.0391C14.8225 11.0281 14.8525 11.0179 14.8838 11.0117C14.8857 11.0113 14.8877 11.0111 14.8896 11.0107C14.9012 11.0086 14.9132 11.0083 14.9248 11.0068C14.9464 11.0041 14.9681 11.0003 14.9902 11H15.0107C15.0325 11.0004 15.0539 11.0042 15.0752 11.0068C15.087 11.0083 15.0995 11.0085 15.1113 11.0107C15.113 11.011 15.1146 11.0114 15.1162 11.0117C15.1475 11.0179 15.1774 11.0281 15.207 11.0391C15.2144 11.0418 15.2223 11.0429 15.2295 11.0459C15.2523 11.0554 15.2735 11.0679 15.2949 11.0801C15.3085 11.0878 15.323 11.0938 15.3359 11.1025C15.3492 11.1115 15.3605 11.1229 15.373 11.1328C15.3905 11.1467 15.4081 11.1601 15.4238 11.1758C15.4702 11.222 15.5076 11.2766 15.5371 11.3369C15.5418 11.3465 15.5476 11.3554 15.5518 11.3652C15.5583 11.3806 15.5621 11.397 15.5674 11.4131C15.575 11.4363 15.5831 11.4592 15.5879 11.4834C15.5883 11.4854 15.5895 11.4872 15.5898 11.4893L16.2002 14.7441L16.8105 11.4893C16.8717 11.1637 17.1852 10.9498 17.5107 11.0107Z" fill="white"/>
</svg>
