<svg width="40" height="40" viewBox="0 0 40 40" fill="none" xmlns="http://www.w3.org/2000/svg">
<path d="M9.59998 11C9.59998 8.79086 11.3908 7 13.6 7H23.4666L30.4 13.9333V29C30.4 31.2091 28.6091 33 26.4 33H13.6C11.3908 33 9.59998 31.2091 9.59998 29V11Z" fill="white"/>
<path d="M13.6 7.5H23.2592L29.8998 14.1406V29C29.8998 30.933 28.3328 32.5 26.3998 32.5H13.6C11.667 32.5 10.1 30.933 10.1 29V11C10.1 9.067 11.667 7.5 13.6 7.5Z" stroke="black" stroke-opacity="0.075"/>
<path fill-rule="evenodd" clip-rule="evenodd" d="M20 16.75C22.8992 16.75 25.25 19.1008 25.25 22C25.25 24.8992 22.8992 27.25 20 27.25C17.1008 27.25 14.75 24.8992 14.75 22C14.75 19.1008 17.1008 16.75 20 16.75Z" fill="#CC6699"/>
<path d="M23.2928 18.9958C23.0537 18.0625 21.5078 17.7562 20.0466 18.2754C19.1745 18.5845 18.2324 19.0716 17.5557 19.7045C16.7507 20.457 16.6224 21.1133 16.6749 21.3875C16.8616 22.3558 18.1887 22.9858 18.7312 23.4554C18.5707 23.537 17.3953 24.132 17.1182 24.7416C16.8266 25.3833 17.1649 25.8441 17.3866 25.9054C18.0778 26.0979 18.7866 25.7508 19.1657 25.185C19.5332 24.6366 19.5012 23.9279 19.3437 23.5779C19.5653 23.5195 19.822 23.4933 20.1457 23.5312C21.0674 23.6391 21.2482 24.2137 21.2132 24.4558C21.1782 24.6979 20.9857 24.8291 20.9216 24.87C20.8574 24.9108 20.837 24.9225 20.8428 24.9545C20.8516 24.9983 20.8807 24.9954 20.9362 24.9866C21.012 24.975 21.4203 24.7912 21.4378 24.3479C21.4612 23.785 20.9187 23.152 19.962 23.1695C19.5682 23.1754 19.3203 23.2133 19.1424 23.2804C19.1278 23.2658 19.1162 23.2512 19.1016 23.2366C18.5095 22.6066 17.4157 22.1575 17.4624 21.3116C17.4799 21.0025 17.5878 20.1916 19.5653 19.2058C21.1841 18.3979 22.482 18.6195 22.7066 19.1125C23.0274 19.8154 22.0124 21.122 20.3324 21.3116C19.6907 21.3845 19.3553 21.1337 19.2707 21.0433C19.1832 20.947 19.1687 20.9412 19.1366 20.9587C19.0841 20.9879 19.1162 21.0754 19.1366 21.125C19.1862 21.2562 19.3932 21.4866 19.7432 21.6033C20.0524 21.7054 20.8049 21.7608 21.7149 21.4079C22.7328 21.0141 23.5291 19.9175 23.2957 18.9987L23.2928 18.9958ZM18.9557 23.747C19.0316 24.03 19.0228 24.2925 18.9441 24.5316C18.9353 24.5579 18.9266 24.5841 18.9149 24.6104C18.9032 24.6366 18.8945 24.6629 18.8799 24.6862C18.8187 24.8116 18.737 24.9312 18.6378 25.0391C18.3316 25.3716 17.9057 25.497 17.7249 25.392C17.5266 25.2783 17.6257 24.8087 17.9787 24.4354C18.3578 24.0329 18.9062 23.7733 18.9062 23.7733C18.9207 23.7645 18.9382 23.7558 18.9528 23.7441L18.9557 23.747Z" fill="white"/>
<path d="M23.4667 7L30.4 13.9333H27.4667C25.2575 13.9333 23.4667 12.1425 23.4667 9.93333V7Z" fill="white"/>
<path d="M29.1932 13.4336H27.4667C25.5338 13.4336 23.9668 11.8665 23.9667 9.93359V8.20703L29.1932 13.4336Z" stroke="black" stroke-opacity="0.075"/>
</svg>
