<svg width="40" height="40" viewBox="0 0 40 40" fill="none" xmlns="http://www.w3.org/2000/svg">
<path d="M10 11C10 8.79086 11.7909 7 14 7H23.8667L30.8 13.9333V29C30.8 31.2091 29.0091 33 26.8 33H14C11.7909 33 10 31.2091 10 29V11Z" fill="white"/>
<path d="M14 7.5H23.6592L30.2998 14.1406V29C30.2998 30.933 28.7328 32.5 26.7998 32.5H14C12.067 32.5 10.5 30.933 10.5 29V11C10.5 9.067 12.067 7.5 14 7.5Z" stroke="black" stroke-opacity="0.075"/>
<path fill-rule="evenodd" clip-rule="evenodd" d="M21.1896 20.3603C21.4203 20.1296 21.7331 20 22.0593 20H23.9043C24.244 20 24.5193 20.2753 24.5193 20.615C24.5193 20.9547 24.244 21.23 23.9043 21.23L22.0593 21.23V22.46H23.2893C23.6156 22.46 23.9284 22.5896 24.1591 22.8203C24.3898 23.0509 24.5193 23.3638 24.5193 23.69V24.92C24.5193 25.2462 24.3898 25.5591 24.1591 25.7897C23.9284 26.0204 23.6156 26.15 23.2893 26.15H21.4443C21.1047 26.15 20.8293 25.8747 20.8293 25.535C20.8293 25.1953 21.1047 24.92 21.4443 24.92H23.2893V23.69H22.0593C21.7331 23.69 21.4203 23.5604 21.1896 23.3297C20.9589 23.0991 20.8293 22.7862 20.8293 22.46V21.23C20.8293 20.9038 20.9589 20.5909 21.1896 20.3603Z" fill="#C08A0D"/>
<path d="M16.28 24.5752C16.28 24.2576 16.5377 24 16.8552 24C17.1728 24 17.4304 24.2576 17.4304 24.5752C17.4304 24.8099 17.6205 25 17.8552 25H18.3552C18.5899 25 18.78 24.8099 18.78 24.5752V20.5752C18.78 20.2576 19.0377 20 19.3552 20C19.6728 20 19.9304 20.2576 19.9304 20.5752V24.5752C19.9304 25.445 19.2251 26.1504 18.3552 26.1504H17.8552C16.9854 26.1504 16.28 25.445 16.28 24.5752Z" fill="#C08A0D"/>
<path d="M23.4667 7L30.4 13.9333H27.4667C25.2575 13.9333 23.4667 12.1425 23.4667 9.93333V7Z" fill="white"/>
<path d="M29.1932 13.4336H27.4667C25.5338 13.4336 23.9668 11.8665 23.9667 9.93359V8.20703L29.1932 13.4336Z" stroke="black" stroke-opacity="0.075"/>
</svg>
