<svg width="40" height="40" viewBox="0 0 40 40" fill="none" xmlns="http://www.w3.org/2000/svg">
<path d="M9.59998 11C9.59998 8.79086 11.3908 7 13.6 7H23.4666L30.4 13.9333V29C30.4 31.2091 28.6091 33 26.4 33H13.6C11.3908 33 9.59998 31.2091 9.59998 29V11Z" fill="#CC492E"/>
<rect x="12" y="25.5" width="16" height="1" rx="0.5" fill="white"/>
<rect x="12" y="28" width="16" height="1" rx="0.5" fill="white"/>
<path d="M23.4667 7L30.4 13.9333H27.4667C25.2575 13.9333 23.4667 12.1425 23.4667 9.93333V7Z" fill="white" fill-opacity="0.2"/>
<path d="M25 18C25 18.9889 24.7068 19.9556 24.1573 20.7779C23.6079 21.6001 22.827 22.241 21.9134 22.6194C20.9998 22.9978 19.9945 23.0969 19.0245 22.9039C18.0546 22.711 17.1637 22.2348 16.4645 21.5355C15.7652 20.8363 15.289 19.9454 15.0961 18.9755C14.9031 18.0055 15.0022 17.0002 15.3806 16.0866C15.759 15.173 16.3999 14.3921 17.2221 13.8427C18.0444 13.2932 19.0111 13 20 13V18H25Z" fill="white"/>
<path d="M21 12C21.6566 12 22.3068 12.1293 22.9134 12.3806C23.52 12.6319 24.0712 13.0002 24.5355 13.4645C24.9998 13.9288 25.3681 14.48 25.6194 15.0866C25.8707 15.6932 26 16.3434 26 17L21 17V12Z" fill="white"/>
</svg>
