<svg width="40" height="40" viewBox="0 0 40 40" fill="none" xmlns="http://www.w3.org/2000/svg">
<path d="M9.59998 11C9.59998 8.79086 11.3908 7 13.6 7H23.4666L30.4 13.9333V29C30.4 31.2091 28.6091 33 26.4 33H13.6C11.3908 33 9.59998 31.2091 9.59998 29V11Z" fill="white"/>
<path d="M13.6 7.5H23.2592L29.8998 14.1406V29C29.8998 30.933 28.3328 32.5 26.3998 32.5H13.6C11.667 32.5 10.1 30.933 10.1 29V11C10.1 9.067 11.667 7.5 13.6 7.5Z" stroke="black" stroke-opacity="0.075"/>
<path d="M23.4667 7L30.4 13.9333H27.4667C25.2575 13.9333 23.4667 12.1425 23.4667 9.93333V7Z" fill="white"/>
<path d="M29.1932 13.4336H27.4667C25.5338 13.4336 23.9668 11.8665 23.9667 9.93359V8.20703L29.1932 13.4336Z" stroke="black" stroke-opacity="0.075"/>
<path d="M24.2229 22.0051C24.0354 21.8871 23.8826 21.7638 23.7645 21.6353C23.6465 21.5069 23.5493 21.3506 23.4729 21.1666C23.3965 20.9826 23.3427 20.7656 23.3114 20.5156C23.2802 20.2621 23.2646 19.9652 23.2646 19.625C23.2646 19.2951 23.2576 19.0434 23.2437 18.8698C23.2298 18.6927 23.2021 18.5642 23.1604 18.4843C23.1187 18.4045 23.0597 18.3507 22.9833 18.3229C22.9104 18.2916 22.7975 18.2673 22.6448 18.25C22.5163 18.2326 22.4069 18.1701 22.3167 18.0625C22.2298 17.9548 22.1864 17.8073 22.1864 17.6198C22.1864 17.2066 22.4382 17 22.9416 17C23.2646 17 23.5475 17.066 23.7906 17.1979C24.0371 17.3264 24.2298 17.5121 24.3687 17.7552C24.5111 17.9948 24.584 18.2691 24.5874 18.5781C24.6083 19.7309 24.6326 20.3645 24.6604 20.4791C24.7159 20.7083 24.7975 20.8836 24.9051 21.0051C25.0128 21.1232 25.143 21.2291 25.2958 21.3228C25.4485 21.4131 25.5614 21.5034 25.6343 21.5937C25.7107 21.6839 25.7489 21.8211 25.7489 22.0051C25.7489 22.2655 25.6499 22.4565 25.452 22.578C25.209 22.7273 25.0319 22.8593 24.9208 22.9738C24.8131 23.085 24.7367 23.2256 24.6916 23.3957C24.6499 23.5624 24.6239 23.8141 24.6135 24.1509C24.6065 24.4877 24.5979 24.9096 24.5874 25.4165C24.577 25.8957 24.4225 26.2793 24.1239 26.5675C23.8288 26.8592 23.4347 27.005 22.9416 27.005C22.6986 27.005 22.5111 26.9512 22.3792 26.8436C22.2507 26.7359 22.1864 26.5797 22.1864 26.3748C22.1864 26.2602 22.2073 26.1543 22.2489 26.0571C22.2906 25.9634 22.3444 25.8905 22.4104 25.8384C22.4798 25.7863 22.558 25.755 22.6448 25.7446C22.801 25.7238 22.9173 25.6978 22.9937 25.6665C23.0701 25.6353 23.1274 25.5762 23.1656 25.4894C23.2073 25.4026 23.2333 25.2741 23.2437 25.104C23.2576 24.9374 23.2646 24.6926 23.2646 24.3697C23.2715 23.8905 23.2993 23.5155 23.3479 23.2447C23.3965 22.9738 23.4885 22.7412 23.6239 22.5468C23.7593 22.3523 23.959 22.1718 24.2229 22.0051Z" fill="#C08A0D"/>
<path d="M15.7749 22.0051C16.0214 22.1579 16.2141 22.3298 16.353 22.5207C16.4919 22.7082 16.5891 22.9495 16.6447 23.2447C16.7002 23.5363 16.728 23.9113 16.728 24.3697C16.728 24.7134 16.735 24.9669 16.7489 25.1301C16.7662 25.2933 16.7975 25.4165 16.8426 25.4998C16.8912 25.5867 16.9485 25.6422 17.0145 25.6665C17.0804 25.6943 17.1933 25.7203 17.353 25.7446C17.485 25.762 17.5943 25.8262 17.6811 25.9373C17.7679 26.0484 17.8113 26.1943 17.8113 26.3748C17.8113 26.795 17.5561 27.005 17.0457 27.005C16.7298 27.005 16.4468 26.9391 16.1968 26.8071C15.9503 26.6752 15.7593 26.4877 15.6239 26.2446C15.4885 26.005 15.419 25.729 15.4155 25.4165C15.4051 24.8887 15.3947 24.4651 15.3843 24.1457C15.3739 23.8263 15.3583 23.6197 15.3374 23.5259C15.2853 23.2933 15.2072 23.1179 15.1031 22.9999C15.0024 22.8818 14.8687 22.7725 14.702 22.6718C14.5388 22.5676 14.4225 22.4756 14.3531 22.3957C14.2836 22.3124 14.2489 22.1822 14.2489 22.0051C14.2489 21.7482 14.3496 21.5555 14.551 21.427C14.801 21.2708 14.9781 21.1388 15.0822 21.0312C15.1899 20.9201 15.2645 20.7795 15.3062 20.6093C15.3513 20.4357 15.3774 20.2482 15.3843 20.0468C15.3912 19.842 15.4017 19.3524 15.4155 18.5781C15.426 18.0989 15.577 17.717 15.8687 17.4323C16.1638 17.1441 16.5561 17 17.0457 17C17.5561 17 17.8113 17.2066 17.8113 17.6198C17.8113 17.8073 17.7679 17.9549 17.6811 18.0625C17.5978 18.1701 17.4884 18.2326 17.353 18.25C17.1516 18.2778 17.011 18.3194 16.9311 18.375C16.8513 18.4305 16.7992 18.5382 16.7749 18.6979C16.7506 18.8576 16.735 19.1666 16.728 19.625C16.7211 20.0729 16.6933 20.4409 16.6447 20.7291C16.5996 21.0138 16.5075 21.2569 16.3687 21.4583C16.2332 21.6596 16.0353 21.8419 15.7749 22.0051Z" fill="#C08A0D"/>
<path d="M19.3333 25.8887V22.3333C19.3333 21.9651 19.6317 21.6666 19.9999 21.6666C20.3681 21.6666 20.6666 21.9651 20.6666 22.3333V25.8887C20.6666 26.2569 20.3681 26.5554 19.9999 26.5554C19.6317 26.5554 19.3333 26.2569 19.3333 25.8887Z" fill="#C08A0D"/>
<path d="M19.3333 19.6666C19.3333 19.2984 19.6317 19 19.9999 19C20.3681 19 20.6666 19.2984 20.6666 19.6666C20.6666 20.0348 20.3681 20.3333 19.9999 20.3333C19.6549 20.3333 19.371 20.0712 19.3367 19.7352L19.3333 19.6666Z" fill="#C08A0D"/>
</svg>
