<svg width="40" height="40" viewBox="0 0 40 40" fill="none" xmlns="http://www.w3.org/2000/svg">
<path d="M9.59998 11C9.59998 8.79086 11.3908 7 13.6 7H23.4666L30.4 13.9333V29C30.4 31.2091 28.6091 33 26.4 33H13.6C11.3908 33 9.59998 31.2091 9.59998 29V11Z" fill="#FFB13B"/>
<path d="M23.4667 7L30.4 13.9333H27.4667C25.2575 13.9333 23.4667 12.1425 23.4667 9.93333V7Z" fill="white" fill-opacity="0.2"/>
<path fill-rule="evenodd" clip-rule="evenodd" d="M22.927 20.5273C23.2646 20.1897 23.7224 20.0001 24.1998 20.0001H25.3998C25.7312 20.0001 25.9998 20.2687 25.9998 20.6001C25.9998 20.9315 25.7312 21.2001 25.3998 21.2001H24.1998C24.0407 21.2001 23.8881 21.2633 23.7756 21.3758C23.663 21.4883 23.5998 21.6409 23.5998 21.8001V24.2C23.5998 24.3592 23.663 24.5118 23.7756 24.6243C23.8881 24.7368 24.0407 24.8 24.1998 24.8H24.7998V23.6C24.4684 23.6 24.1998 23.3314 24.1998 23.0001C24.1998 22.6687 24.4684 22.4001 24.7998 22.4001H25.3998C25.7312 22.4001 25.9998 22.6687 25.9998 23.0001V25.4C25.9998 25.7314 25.7312 26 25.3998 26H24.1998C23.7224 26 23.2646 25.8104 22.927 25.4728C22.5895 25.1352 22.3998 24.6774 22.3998 24.2V21.8001C22.3998 21.3227 22.5895 20.8649 22.927 20.5273Z" fill="white"/>
<path fill-rule="evenodd" clip-rule="evenodd" d="M14.3515 20.3516C14.5765 20.1265 14.8817 20.0001 15.2 20.0001H16.9999C17.3313 20.0001 17.5999 20.2687 17.5999 20.6001C17.5999 20.9315 17.3313 21.2001 16.9999 21.2001L15.2 21.2001V22.4001H16.4C16.7182 22.4001 17.0234 22.5265 17.2485 22.7515C17.4735 22.9766 17.5999 23.2818 17.5999 23.6V24.8C17.5999 25.1183 17.4735 25.4235 17.2485 25.6485C17.0234 25.8736 16.7182 26 16.4 26H14.6C14.2686 26 14 25.7314 14 25.4C14 25.0686 14.2686 24.8 14.6 24.8H16.4V23.6H15.2C14.8817 23.6 14.5765 23.4736 14.3515 23.2486C14.1264 23.0235 14 22.7183 14 22.4001V21.2001C14 20.8818 14.1264 20.5766 14.3515 20.3516Z" fill="white"/>
<path fill-rule="evenodd" clip-rule="evenodd" d="M18.6893 20.0104C19.015 19.9493 19.3286 20.1638 19.3896 20.4895L19.9999 23.7443L20.6102 20.4895C20.6712 20.1638 20.9848 19.9493 21.3104 20.0104C21.6361 20.0715 21.8507 20.385 21.7896 20.7107L20.8896 25.5106C20.8364 25.7944 20.5886 26 20.2999 26H19.6999C19.4112 26 19.1634 25.7944 19.1102 25.5106L18.2102 20.7107C18.1491 20.385 18.3637 20.0715 18.6893 20.0104Z" fill="white"/>
</svg>
