<svg width="40" height="40" viewBox="0 0 40 40" fill="none" xmlns="http://www.w3.org/2000/svg">
<path d="M9.59998 11C9.59998 8.79086 11.3908 7 13.6 7H23.4666L30.4 13.9333V29C30.4 31.2091 28.6091 33 26.4 33H13.6C11.3908 33 9.59998 31.2091 9.59998 29V11Z" fill="white"/>
<path d="M13.6 7.5H23.2592L29.8998 14.1406V29C29.8998 30.933 28.3328 32.5 26.3998 32.5H13.6C11.667 32.5 10.1 30.933 10.1 29V11C10.1 9.067 11.667 7.5 13.6 7.5Z" stroke="black" stroke-opacity="0.075"/>
<path d="M23.4667 7L30.4 13.9333H27.4667C25.2575 13.9333 23.4667 12.1425 23.4667 9.93333V7Z" fill="white"/>
<path d="M29.1932 13.4336H27.4667C25.5338 13.4336 23.9668 11.8665 23.9667 9.93359V8.20703L29.1932 13.4336Z" stroke="black" stroke-opacity="0.075"/>
<path d="M16.5 18.5C16.5 17.5083 17.2583 16.75 18.25 16.75H20V20.25H18.25C17.2583 20.25 16.5 19.4917 16.5 18.5Z" fill="#F24E1E"/>
<path d="M16.5 22C16.5 21.0083 17.2583 20.25 18.25 20.25H20V23.75H18.25C17.2583 23.75 16.5 22.9917 16.5 22Z" fill="#A259FF"/>
<path d="M18.25 27.25C19.2417 27.25 20 26.4917 20 25.5V23.75H18.25C17.2583 23.75 16.5 24.5083 16.5 25.5C16.5 26.4917 17.2583 27.25 18.25 27.25Z" fill="#0ACF83"/>
<path d="M21.75 23.75C22.7165 23.75 23.5 22.9665 23.5 22C23.5 21.0335 22.7165 20.25 21.75 20.25C20.7835 20.25 20 21.0335 20 22C20 22.9665 20.7835 23.75 21.75 23.75Z" fill="#1ABCFE"/>
<path d="M20 16.75H21.75C22.7417 16.75 23.5 17.5083 23.5 18.5C23.5 19.4917 22.7417 20.25 21.75 20.25H20V16.75Z" fill="#FF7262"/>
</svg>
