<svg width="40" height="40" viewBox="0 0 40 40" fill="none" xmlns="http://www.w3.org/2000/svg">
<path d="M9.59998 11C9.59998 8.79086 11.3908 7 13.6 7H23.4666L30.4 13.9333V29C30.4 31.2091 28.6091 33 26.4 33H13.6C11.3908 33 9.59998 31.2091 9.59998 29V11Z" fill="#007B68"/>
<path fill-rule="evenodd" clip-rule="evenodd" d="M15.7046 20.5404C16.0341 20.1944 16.4811 20 16.9471 20H18.1185C18.442 20 18.7042 20.2753 18.7042 20.615C18.7042 20.9547 18.442 21.23 18.1185 21.23H16.9471C16.7917 21.23 16.6428 21.2948 16.5329 21.4101C16.4231 21.5255 16.3614 21.6819 16.3614 21.845V24.305C16.3614 24.4681 16.4231 24.6245 16.5329 24.7399C16.6428 24.8552 16.7917 24.92 16.9471 24.92H17.5328V23.69C17.2093 23.69 16.9471 23.4147 16.9471 23.075C16.9471 22.7353 17.2093 22.46 17.5328 22.46H18.1185C18.442 22.46 18.7042 22.7353 18.7042 23.075V25.535C18.7042 25.8747 18.442 26.15 18.1185 26.15H16.9471C16.4811 26.15 16.0341 25.9556 15.7046 25.6096C15.3751 25.2636 15.1899 24.7943 15.1899 24.305V21.845C15.1899 21.3557 15.3751 20.8864 15.7046 20.5404Z" fill="white"/>
<path d="M19.6042 25.5752V20.5752C19.6042 20.2576 19.8619 20 20.1794 20C20.497 20 20.7546 20.2576 20.7546 20.5752V25.5752C20.7546 25.8928 20.497 26.1504 20.1794 26.1504C19.8619 26.1504 19.6042 25.8928 19.6042 25.5752Z" fill="white"/>
<path d="M21.6547 25.5752V20.5752L21.6664 20.459C21.7201 20.1971 21.9521 20 22.2299 20H24.2299L24.3461 20.0117C24.6079 20.0654 24.8051 20.2974 24.8051 20.5752C24.8051 20.853 24.6079 21.0849 24.3461 21.1387L24.2299 21.1504H22.8051V22.5H23.8295L23.9457 22.5117C24.2077 22.5653 24.4047 22.7973 24.4047 23.0752C24.4047 23.3531 24.2077 23.5851 23.9457 23.6387L23.8295 23.6504H22.8051V25.5752C22.8051 25.8928 22.5474 26.1504 22.2299 26.1504C21.9123 26.1504 21.6547 25.8928 21.6547 25.5752Z" fill="white"/>
<path d="M23.4667 7L30.4 13.9333H27.4667C25.2575 13.9333 23.4667 12.1425 23.4667 9.93333V7Z" fill="white" fill-opacity="0.2"/>
</svg>
