<svg width="40" height="40" viewBox="0 0 40 40" fill="none" xmlns="http://www.w3.org/2000/svg">
<path d="M10 11C10 8.79086 11.7909 7 14 7H23.8667L30.8 13.9333V29C30.8 31.2091 29.0091 33 26.8 33H14C11.7909 33 10 31.2091 10 29V11Z" fill="#B21212"/>
<path d="M19.857 13.947C23.6247 13.3853 16.4453 30.3814 13.7159 27.4627C11.1794 24.7495 28.8758 20.4917 27.2243 23.6462C24.7669 28.3503 15.7531 14.5538 19.857 13.947Z" stroke="#F9F9FA" stroke-miterlimit="10"/>
<path d="M23.8667 7L30.8 13.9333H27.8667C25.6576 13.9333 23.8667 12.1425 23.8667 9.93333V7Z" fill="white" fill-opacity="0.2"/>
</svg>
