<svg width="40" height="40" viewBox="0 0 40 40" fill="none" xmlns="http://www.w3.org/2000/svg">
<path d="M10 11C10 8.79086 11.7909 7 14 7H23.8667L30.8 13.9333V29C30.8 31.2091 29.0091 33 26.8 33H14C11.7909 33 10 31.2091 10 29V11Z" fill="#E17117"/>
<path d="M23.8667 7L30.8 13.9333H27.8667C25.6576 13.9333 23.8667 12.1425 23.8667 9.93333V7Z" fill="white" fill-opacity="0.2"/>
<path d="M19.9004 21.4952C19.9004 21.2606 19.7101 21.0706 19.4756 21.0704H19.0752C18.8405 21.0704 18.6504 21.2605 18.6504 21.4952V22.42H19.9004V21.4952ZM21.0498 25.4952C21.0498 25.8126 20.793 26.0702 20.4756 26.0704C20.158 26.0704 19.9004 25.8127 19.9004 25.4952V23.5704H18.6504V25.4952C18.6504 25.8127 18.3928 26.0704 18.0752 26.0704C17.7576 26.0704 17.5 25.8127 17.5 25.4952V21.4952C17.5 20.6253 18.2053 19.92 19.0752 19.92H19.4756C20.3453 19.9202 21.0498 20.6255 21.0498 21.4952V25.4952Z" fill="white"/>
<path d="M22.1249 25.5V20.5C22.1249 20.1824 22.3825 19.9248 22.7001 19.9248C23.0176 19.9248 23.2753 20.1824 23.2753 20.5V25.5C23.2753 25.8176 23.0176 26.0752 22.7001 26.0752C22.3825 26.0752 22.1249 25.8176 22.1249 25.5Z" fill="white"/>
</svg>
