<svg width="40" height="40" viewBox="0 0 40 40" fill="none" xmlns="http://www.w3.org/2000/svg">
<path d="M9.59998 11C9.59998 8.79086 11.3908 7 13.6 7H23.4666L30.4 13.9333V29C30.4 31.2091 28.6091 33 26.4 33H13.6C11.3908 33 9.59998 31.2091 9.59998 29V11Z" fill="#997AE6"/>
<path d="M23.4667 7L30.4 13.9333H27.4667C25.2575 13.9333 23.4667 12.1425 23.4667 9.93333V7Z" fill="white" fill-opacity="0.2"/>
<path fill-rule="evenodd" clip-rule="evenodd" d="M23.1077 20.5331C23.4327 20.1917 23.8736 20 24.3333 20H25.4889C25.808 20 26.0666 20.2716 26.0666 20.6067C26.0666 20.9417 25.808 21.2133 25.4889 21.2133H24.3333C24.1801 21.2133 24.0331 21.2772 23.9248 21.391C23.8164 21.5048 23.7555 21.6591 23.7555 21.82V24.2467C23.7555 24.4076 23.8164 24.5619 23.9248 24.6756C24.0331 24.7894 24.1801 24.8533 24.3333 24.8533H24.9111V23.64C24.592 23.64 24.3333 23.3684 24.3333 23.0333C24.3333 22.6983 24.592 22.4267 24.9111 22.4267H25.4889C25.808 22.4267 26.0666 22.6983 26.0666 23.0333V25.46C26.0666 25.7951 25.808 26.0667 25.4889 26.0667H24.3333C23.8736 26.0667 23.4327 25.8749 23.1077 25.5336C22.7826 25.1923 22.6 24.7294 22.6 24.2467V21.82C22.6 21.3373 22.7826 20.8744 23.1077 20.5331Z" fill="white"/>
<path fill-rule="evenodd" clip-rule="evenodd" d="M13.9333 20.6067C13.9333 20.2716 14.192 20 14.5111 20H15.6667C16.1264 20 16.5673 20.1917 16.8923 20.5331C17.2174 20.8744 17.4 21.3373 17.4 21.82C17.4 22.3027 17.2174 22.7656 16.8923 23.1069C16.5673 23.4483 16.1264 23.64 15.6667 23.64H15.0889V25.46C15.0889 25.7951 14.8302 26.0667 14.5111 26.0667C14.192 26.0667 13.9333 25.7951 13.9333 25.46V20.6067ZM15.0889 22.4267H15.6667C15.8199 22.4267 15.9669 22.3628 16.0752 22.249C16.1836 22.1352 16.2445 21.9809 16.2445 21.82C16.2445 21.6591 16.1836 21.5048 16.0752 21.391C15.9669 21.2772 15.8199 21.2133 15.6667 21.2133H15.0889V22.4267Z" fill="white"/>
<path fill-rule="evenodd" clip-rule="evenodd" d="M18.7118 20.0163C18.9725 19.9516 19.2414 20.0838 19.3613 20.3354L20.5778 22.8901V20.6067C20.5778 20.2717 20.8365 20.0001 21.1556 20.0001C21.4747 20.0001 21.7334 20.2717 21.7334 20.6067V25.46C21.7334 25.7413 21.5492 25.9857 21.2884 26.0504C21.0276 26.115 20.7587 25.9829 20.6388 25.7313L19.4223 23.1765V25.46C19.4223 25.795 19.1636 26.0666 18.8445 26.0666C18.5254 26.0666 18.2667 25.795 18.2667 25.46V20.6067C18.2667 20.3254 18.451 20.0809 18.7118 20.0163Z" fill="white"/>
</svg>
