<svg width="40" height="40" viewBox="0 0 40 40" fill="none" xmlns="http://www.w3.org/2000/svg">
<path d="M9.59998 11C9.59998 8.79086 11.3908 7 13.6 7H23.4666L30.4 13.9333V29C30.4 31.2091 28.6091 33 26.4 33H13.6C11.3908 33 9.59998 31.2091 9.59998 29V11Z" fill="white"/>
<path d="M13.6 7.5H23.2592L29.8998 14.1406V29C29.8998 30.933 28.3328 32.5 26.3998 32.5H13.6C11.667 32.5 10.1 30.933 10.1 29V11C10.1 9.067 11.667 7.5 13.6 7.5Z" stroke="black" stroke-opacity="0.075"/>
<path d="M23.4008 25.5747V22.6508L22.9691 23.3706C22.8652 23.5438 22.6779 23.6499 22.476 23.6499C22.2992 23.6499 22.134 23.5684 22.0258 23.4321L21.9828 23.3706L21.5511 22.6508V25.5747C21.5511 25.8922 21.2935 26.1499 20.976 26.1499C20.6584 26.1499 20.4008 25.8922 20.4008 25.5747V20.5747C20.4008 20.3162 20.5736 20.0899 20.8226 20.021C21.0717 19.952 21.3362 20.0572 21.4691 20.2788L22.476 21.9565L23.4828 20.2788L23.5385 20.2016C23.6815 20.0337 23.9112 19.9606 24.1293 20.021C24.3783 20.0899 24.5511 20.3162 24.5511 20.5747V25.5747C24.5511 25.8922 24.2935 26.1499 23.976 26.1499C23.6584 26.1499 23.4008 25.8922 23.4008 25.5747Z" fill="#008000"/>
<path d="M25.1511 20.5752C25.1511 20.2576 25.4088 20 25.7263 20C26.0439 20 26.3015 20.2576 26.3015 20.5752V25H27.5263L27.6425 25.0117C27.9044 25.0654 28.1015 25.2974 28.1015 25.5752C28.1015 25.853 27.9044 26.0849 27.6425 26.1387L27.5263 26.1504H25.7263C25.4088 26.1504 25.1511 25.8928 25.1511 25.5752V20.5752Z" fill="#008000"/>
<path d="M14.6999 25.5752V23.6504H13.4503V25.5752C13.4503 25.8928 13.1927 26.1504 12.8751 26.1504C12.5576 26.1504 12.2999 25.8928 12.2999 25.5752V20.5752C12.2999 20.2576 12.5576 20 12.8751 20C13.1927 20 13.4503 20.2576 13.4503 20.5752V22.5H14.6999V20.5752C14.6999 20.2576 14.9576 20 15.2751 20C15.5927 20 15.8503 20.2576 15.8503 20.5752V25.5752C15.8503 25.8928 15.5927 26.1504 15.2751 26.1504C14.9576 26.1504 14.6999 25.8928 14.6999 25.5752Z" fill="#008000"/>
<path d="M17.5504 25.5752V21.1504H16.8256C16.508 21.1504 16.2504 20.8928 16.2504 20.5752C16.2504 20.2576 16.508 20 16.8256 20H19.4256L19.5418 20.0117C19.8036 20.0654 20.0008 20.2974 20.0008 20.5752C20.0008 20.853 19.8036 21.0849 19.5418 21.1387L19.4256 21.1504H18.7008V25.5752C18.7008 25.8928 18.4431 26.1504 18.1256 26.1504C17.808 26.1504 17.5504 25.8928 17.5504 25.5752Z" fill="#008000"/>
<path d="M23.4667 7L30.4 13.9333H27.4667C25.2575 13.9333 23.4667 12.1425 23.4667 9.93333V7Z" fill="white"/>
<path d="M29.1932 13.4336H27.4667C25.5338 13.4336 23.9668 11.8665 23.9667 9.93359V8.20703L29.1932 13.4336Z" stroke="black" stroke-opacity="0.075"/>
</svg>
