<svg width="40" height="40" viewBox="0 0 40 40" fill="none" xmlns="http://www.w3.org/2000/svg">
<path d="M10 11C10 8.79086 11.7909 7 14 7H23.8667L30.8 13.9333V29C30.8 31.2091 29.0091 33 26.8 33H14C11.7909 33 10 31.2091 10 29V11Z" fill="white"/>
<path d="M14 7.5H23.6592L30.2998 14.1406V29C30.2998 30.933 28.7328 32.5 26.7998 32.5H14C12.067 32.5 10.5 30.933 10.5 29V11C10.5 9.067 12.067 7.5 14 7.5Z" stroke="black" stroke-opacity="0.075"/>
<path d="M15.3333 26.6667H17.0833M21.1666 26.6667H25.2499M17.0249 23.75H21.0499M18.9499 18.6751L22.3332 26.6667M15.9166 26.6667L19.4166 17.3334H20.5833L24.6666 26.6667" stroke="black" stroke-opacity="0.15" stroke-width="0.9625" stroke-linecap="round" stroke-linejoin="round"/>
<path d="M23.4667 7L30.4 13.9333H27.4667C25.2575 13.9333 23.4667 12.1425 23.4667 9.93333V7Z" fill="white"/>
<path d="M29.1932 13.4336H27.4667C25.5338 13.4336 23.9668 11.8665 23.9667 9.93359V8.20703L29.1932 13.4336Z" stroke="black" stroke-opacity="0.075"/>
</svg>
