<svg width="40" height="40" viewBox="0 0 40 40" fill="none" xmlns="http://www.w3.org/2000/svg">
<path d="M9.59998 11C9.59998 8.79086 11.3908 7 13.6 7H23.4666L30.4 13.9333V29C30.4 31.2091 28.6091 33 26.4 33H13.6C11.3908 33 9.59998 31.2091 9.59998 29V11Z" fill="#D1BCBC"/>
<path d="M23.4667 7L30.4 13.9333H27.4667C25.2575 13.9333 23.4667 12.1425 23.4667 9.93333V7Z" fill="white" fill-opacity="0.2"/>
<g clip-path="url(#clip0_303_17471)">
<path d="M16.6129 18.3291L19.9879 18L23.3629 18.3291L25.9758 21.5641L19.9879 27.995L14 21.5641L16.6129 18.3291Z" fill="#FDB300"/>
<path d="M16.4254 21.5641L19.9879 27.995L14 21.5641H16.4254Z" fill="#EA6C00"/>
<path d="M23.5504 21.5641L19.9879 27.995L25.9758 21.5641H23.5504Z" fill="#EA6C00"/>
<path d="M16.4254 21.5641H23.5504L19.9879 27.995L16.4254 21.5641Z" fill="#FDAD00"/>
<path d="M19.9879 18L16.6129 18.3291L16.4254 21.5641L19.9879 18Z" fill="#FDD231"/>
<path d="M19.9879 18L23.3629 18.3291L23.5504 21.5641L19.9879 18Z" fill="#FDD231"/>
<path d="M25.9758 21.5641L23.3629 18.3291L23.5504 21.5641H25.9758Z" fill="#FDAD00"/>
<path d="M14 21.5641L16.6129 18.3291L16.4254 21.5641H14Z" fill="#FDAD00"/>
<path d="M19.9879 18L16.4254 21.5641H23.5504L19.9879 18Z" fill="#FEEEB7"/>
</g>
<path d="M9.59998 11C9.59998 8.79086 11.3908 7 13.6 7H23.4666L30.4 13.9333V29C30.4 31.2091 28.6091 33 26.4 33H13.6C11.3908 33 9.59998 31.2091 9.59998 29V11Z" fill="white"/>
<path d="M13.6 7.5H23.2592L29.8998 14.1406V29C29.8998 30.933 28.3328 32.5 26.3998 32.5H13.6C11.667 32.5 10.1 30.933 10.1 29V11C10.1 9.067 11.667 7.5 13.6 7.5Z" stroke="black" stroke-opacity="0.075"/>
<path d="M23.4667 7L30.4 13.9333H27.4667C25.2575 13.9333 23.4667 12.1425 23.4667 9.93333V7Z" fill="white"/>
<path d="M29.1932 13.4336H27.4667C25.5338 13.4336 23.9668 11.8665 23.9667 9.93359V8.20703L29.1932 13.4336Z" stroke="black" stroke-opacity="0.075"/>
<g clip-path="url(#clip1_303_17471)">
<path d="M16.6129 17.3291L19.9879 17L23.3629 17.3291L25.9758 20.5641L19.9879 26.995L14 20.5641L16.6129 17.3291Z" fill="#FDB300"/>
<path d="M16.4254 20.5641L19.9879 26.995L14 20.5641H16.4254Z" fill="#EA6C00"/>
<path d="M23.5504 20.5641L19.9879 26.995L25.9758 20.5641H23.5504Z" fill="#EA6C00"/>
<path d="M16.4254 20.5641H23.5504L19.9879 26.995L16.4254 20.5641Z" fill="#FDAD00"/>
<path d="M19.9879 17L16.6129 17.3291L16.4254 20.5641L19.9879 17Z" fill="#FDD231"/>
<path d="M19.9879 17L23.3629 17.3291L23.5504 20.5641L19.9879 17Z" fill="#FDD231"/>
<path d="M25.9758 20.5641L23.3629 17.3291L23.5504 20.5641H25.9758Z" fill="#FDAD00"/>
<path d="M14 20.5641L16.6129 17.3291L16.4254 20.5641H14Z" fill="#FDAD00"/>
<path d="M19.9879 17L16.4254 20.5641H23.5504L19.9879 17Z" fill="#FEEEB7"/>
</g>
<defs>
<clipPath id="clip0_303_17471">
<rect width="12" height="10" fill="white" transform="translate(14 18)"/>
</clipPath>
<clipPath id="clip1_303_17471">
<rect width="12" height="10" fill="white" transform="translate(14 17)"/>
</clipPath>
</defs>
</svg>
