<svg width="40" height="40" viewBox="0 0 40 40" fill="none" xmlns="http://www.w3.org/2000/svg">
<path d="M9.59998 11C9.59998 8.79086 11.3908 7 13.6 7H23.4666L30.4 13.9333V29C30.4 31.2091 28.6091 33 26.4 33H13.6C11.3908 33 9.59998 31.2091 9.59998 29V11Z" fill="#3EA53E"/>
<path d="M23.4667 7L30.4 13.9333H27.4667C25.2575 13.9333 23.4667 12.1425 23.4667 9.93333V7Z" fill="white" fill-opacity="0.2"/>
<path fill-rule="evenodd" clip-rule="evenodd" d="M23.2647 20.5404C23.5942 20.1944 24.0411 20 24.5071 20H25.6786C26.0021 20 26.2643 20.2753 26.2643 20.615C26.2643 20.9547 26.0021 21.23 25.6786 21.23H24.5071C24.3518 21.23 24.2028 21.2948 24.093 21.4101C23.9831 21.5255 23.9214 21.6819 23.9214 21.845V24.305C23.9214 24.4681 23.9831 24.6245 24.093 24.7399C24.2028 24.8552 24.3518 24.92 24.5071 24.92H25.0929V23.69C24.7694 23.69 24.5071 23.4147 24.5071 23.075C24.5071 22.7353 24.7694 22.46 25.0929 22.46H25.6786C26.0021 22.46 26.2643 22.7353 26.2643 23.075V25.535C26.2643 25.8747 26.0021 26.15 25.6786 26.15H24.5071C24.0411 26.15 23.5942 25.9556 23.2647 25.6096C22.9351 25.2636 22.75 24.7943 22.75 24.305V21.845C22.75 21.3557 22.9351 20.8864 23.2647 20.5404Z" fill="white"/>
<path fill-rule="evenodd" clip-rule="evenodd" d="M18.55 20.615C18.55 20.2753 18.8123 20 19.1358 20H20.3072C20.7732 20 21.2202 20.1944 21.5497 20.5404C21.8792 20.8864 22.0643 21.3557 22.0643 21.845C22.0643 22.3343 21.8792 22.8036 21.5497 23.1496C21.2202 23.4956 20.7732 23.69 20.3072 23.69H19.7215V25.535C19.7215 25.8747 19.4592 26.15 19.1358 26.15C18.8123 26.15 18.55 25.8747 18.55 25.535V20.615ZM19.7215 22.46H20.3072C20.4625 22.46 20.6115 22.3952 20.7214 22.2799C20.8312 22.1645 20.8929 22.0081 20.8929 21.845C20.8929 21.6819 20.8312 21.5255 20.7214 21.4101C20.6115 21.2948 20.4625 21.23 20.3072 21.23H19.7215V22.46Z" fill="white"/>
<path d="M13.75 24.5752C13.75 24.2576 14.0076 24 14.3252 24C14.6428 24 14.9004 24.2576 14.9004 24.5752C14.9004 24.8099 15.0905 25 15.3252 25H15.8252C16.0599 25 16.25 24.8099 16.25 24.5752V20.5752C16.25 20.2576 16.5076 20 16.8252 20C17.1428 20 17.4004 20.2576 17.4004 20.5752V24.5752C17.4004 25.445 16.695 26.1504 15.8252 26.1504H15.3252C14.4553 26.1504 13.75 25.445 13.75 24.5752Z" fill="white"/>
</svg>
