<svg width="24" height="24" viewBox="0 0 24 24" fill="none" xmlns="http://www.w3.org/2000/svg">
<path d="M11.2251 19.7109V18.6826C11.2252 18.2547 11.5725 17.9082 12.0005 17.9082C12.4284 17.9082 12.7758 18.2547 12.7759 18.6826V19.7109C12.7759 20.139 12.4285 20.4863 12.0005 20.4863C11.5725 20.4863 11.2251 20.139 11.2251 19.7109ZM6.72705 16.1768C7.02959 15.8745 7.52014 15.8746 7.82275 16.1768C8.12541 16.4794 8.12541 16.9708 7.82275 17.2734L7.09619 18C6.79354 18.3027 6.30217 18.3027 5.99951 18C5.69729 17.6973 5.69707 17.2068 5.99951 16.9043L6.72705 16.1768ZM16.1772 16.1768C16.4799 15.8742 16.9713 15.8742 17.2739 16.1768L18.0005 16.9043C18.3031 17.2069 18.3031 17.6973 18.0005 18C17.6978 18.3027 17.2074 18.3027 16.9048 18L16.1772 17.2734C15.8747 16.9708 15.8746 16.4794 16.1772 16.1768ZM15.8521 12C15.852 10.9785 15.4464 9.99867 14.7241 9.27637C14.0018 8.55409 13.022 8.14844 12.0005 8.14844C10.979 8.14846 9.99914 8.55408 9.27686 9.27637C8.55458 9.99867 8.14893 10.9785 8.14893 12C8.14893 13.0215 8.55458 14.0013 9.27686 14.7236C9.99914 15.4459 10.979 15.8515 12.0005 15.8516C13.022 15.8516 14.0018 15.4459 14.7241 14.7236C15.4464 14.0013 15.8521 13.0215 15.8521 12ZM5.31787 11.2246C5.7458 11.2247 6.09229 11.572 6.09229 12C6.09229 12.428 5.7458 12.7753 5.31787 12.7754H4.28955C3.86153 12.7754 3.51416 12.428 3.51416 12C3.51416 11.572 3.86153 11.2246 4.28955 11.2246H5.31787ZM19.7114 11.2246C20.1394 11.2247 20.4858 11.572 20.4858 12C20.4858 12.428 20.1394 12.7753 19.7114 12.7754H18.6831C18.2551 12.7754 17.9077 12.428 17.9077 12C17.9077 11.572 18.2551 11.2246 18.6831 11.2246H19.7114ZM5.99951 5.99902C6.30215 5.69647 6.79355 5.69647 7.09619 5.99902L7.82275 6.72656C8.12538 7.02919 8.12533 7.5196 7.82275 7.82227C7.5201 8.12492 7.02971 8.12492 6.72705 7.82227L5.99951 7.0957C5.69693 6.79304 5.69688 6.30165 5.99951 5.99902ZM16.9048 5.99902C17.2073 5.69674 17.6979 5.69685 18.0005 5.99902C18.3031 6.30168 18.3031 6.79305 18.0005 7.0957L17.2739 7.82227C16.9713 8.12492 16.4799 8.12492 16.1772 7.82227C15.875 7.5196 15.8748 7.02909 16.1772 6.72656L16.9048 5.99902ZM11.2251 5.31738V4.28906C11.2251 3.86104 11.5725 3.51367 12.0005 3.51367C12.4285 3.51367 12.7759 3.86104 12.7759 4.28906V5.31738C12.7758 5.74531 12.4284 6.0918 12.0005 6.0918C11.5725 6.0918 11.2252 5.74531 11.2251 5.31738ZM17.4019 12C17.4019 13.4326 16.8328 14.8063 15.8198 15.8193C14.8068 16.8323 13.4331 17.4014 12.0005 17.4014C10.5679 17.4013 9.19412 16.8323 8.18115 15.8193C7.1682 14.8064 6.59912 13.4326 6.59912 12C6.59912 10.5674 7.16819 9.19365 8.18115 8.18066C9.19412 7.1677 10.5679 6.59866 12.0005 6.59863C13.433 6.59863 14.8068 7.16771 15.8198 8.18066C16.8328 9.19365 17.4019 10.5674 17.4019 12Z" fill="#1C1C1C"/>
</svg>
